<?xml version="1.0" encoding="UTF-8"?>
<svg width="183px" height="184px" viewBox="0 0 183 184" version="1.1" xmlns="http://www.w3.org/2000/svg" xmlns:xlink="http://www.w3.org/1999/xlink">
    <!-- Generator: Sketch 50.2 (55047) - http://www.bohemiancoding.com/sketch -->
    <title>ecommerce-icon</title>
    <desc>Created with Sketch.</desc>
    <defs></defs>
    <g id="Page-1" stroke="none" stroke-width="1" fill="none" fill-rule="evenodd">
        <g id="ecommerce-icon" transform="translate(-3.000000, -1.000000)" fill-rule="nonzero">
            <g id="Layer_3" transform="translate(3.000000, 1.000000)">
                <path d="M166.517,122.258 L16.741,122.258 C8.671,122.258 2.13,115.714 2.13,107.647 L2.13,17.414 C2.13,9.345 8.671,2.801 16.741,2.801 L166.516,2.801 C174.585,2.801 181.13,9.344 181.13,17.414 L181.13,107.646 C181.131,115.714 174.586,122.258 166.517,122.258 Z" id="Shape" fill="#ECF4F7"></path>
                <path d="M166.517,181.801 L16.741,181.801 C8.671,181.801 2.13,175.26 2.13,167.192 L2.13,147.493 C2.13,139.425 8.671,132.884 16.741,132.884 L166.516,132.884 C174.585,132.884 181.13,139.425 181.13,147.493 L181.13,167.192 C181.131,175.26 174.586,181.801 166.517,181.801 Z" id="Shape" fill="#ECF4F7"></path>
                <path d="M20.488,111.297 C16.402,111.297 13.088,107.988 13.088,103.901 L13.088,21.158 C13.088,17.073 16.402,13.762 20.488,13.762 L162.773,13.762 C166.86,13.762 170.169,17.073 170.169,21.158 L170.169,103.902 C170.169,107.989 166.859,111.298 162.773,111.298 L20.488,111.297 Z" id="Shape" fill="#4EA3DA"></path>
                <rect id="Rectangle-path" fill="#4EA3DA" x="43.229" y="143.842" width="9.131" height="10.76"></rect>
                <rect id="Rectangle-path" fill="#4EA3DA" x="57.839" y="143.842" width="9.134" height="10.76"></rect>
                <rect id="Rectangle-path" fill="#4EA3DA" x="72.452" y="143.842" width="9.131" height="10.76"></rect>
                <rect id="Rectangle-path" fill="#4EA3DA" x="28.615" y="143.842" width="9.131" height="10.76"></rect>
                <path d="M23.136,143.842 L17.914,143.842 C15.249,143.842 13.088,146 13.088,148.666 L13.088,154.602 L23.136,154.602 L23.136,143.842 Z" id="Shape" fill="#4EA3DA"></path>
                <rect id="Rectangle-path" fill="#4EA3DA" x="87.066" y="143.842" width="9.129" height="10.76"></rect>
                <rect id="Rectangle-path" fill="#4EA3DA" x="145.513" y="143.842" width="9.133" height="10.76"></rect>
                <rect id="Rectangle-path" fill="#4EA3DA" x="130.901" y="143.842" width="9.131" height="10.76"></rect>
                <path d="M13.088,160.082 L13.088,166.018 C13.088,168.684 15.249,170.844 17.914,170.844 L23.136,170.844 L23.136,160.082 L13.088,160.082 Z" id="Shape" fill="#4EA3DA"></path>
                <path d="M170.169,154.602 L170.169,148.666 C170.169,146 168.011,143.842 165.345,143.842 L160.125,143.842 L160.125,154.602 L170.169,154.602 Z" id="Shape" fill="#4EA3DA"></path>
                <rect id="Rectangle-path" fill="#4EA3DA" x="101.674" y="143.842" width="9.136" height="10.76"></rect>
                <rect id="Rectangle-path" fill="#4EA3DA" x="116.289" y="143.842" width="9.131" height="10.76"></rect>
                <rect id="Rectangle-path" fill="#4EA3DA" x="130.901" y="160.082" width="9.131" height="10.762"></rect>
                <rect id="Rectangle-path" fill="#4EA3DA" x="145.513" y="160.082" width="9.133" height="10.762"></rect>
                <rect id="Rectangle-path" fill="#4EA3DA" x="116.289" y="160.082" width="9.131" height="10.762"></rect>
                <path d="M160.125,170.844 L165.345,170.844 C168.011,170.844 170.169,168.684 170.169,166.018 L170.169,160.082 L160.125,160.082 L160.125,170.844 Z" id="Shape" fill="#4EA3DA"></path>
                <rect id="Rectangle-path" fill="#4EA3DA" x="28.615" y="160.082" width="9.131" height="10.762"></rect>
                <rect id="Rectangle-path" fill="#4EA3DA" x="43.229" y="160.082" width="9.131" height="10.762"></rect>
                <rect id="Rectangle-path" fill="#4EA3DA" x="57.839" y="160.082" width="9.134" height="10.762"></rect>
                <polygon id="Shape" fill="#4EA3DA" points="96.195 160.082 91.45 160.082 87.066 160.082 72.452 160.082 72.452 170.844 87.066 170.844 91.45 170.844 96.195 170.844 110.81 170.844 110.81 160.082"></polygon>
                <path d="M129.26,42.883 L113.868,27.491 L105.276,36.082 C101.867,32.672 96.338,32.672 92.926,36.082 L78.326,50.688 C76.342,52.672 76.342,55.886 78.326,57.87 C79.752,59.296 82.064,59.296 83.493,57.87 L69.649,71.713 L81.939,71.713 L84.444,69.205 L86.953,71.713 L99.945,71.713 L99.945,90.693 L117.35,73.288 C121.689,68.951 123.059,62.771 121.464,57.267 C120.536,54.076 121.512,50.632 123.863,48.282 L129.26,42.883 Z" id="Shape" fill="#F05A27"></path>
                <rect id="Rectangle-path" fill="#ECF4F7" transform="translate(125.024178, 31.723180) rotate(135.008103) translate(-125.024178, -31.723180) " x="120.131724" y="20.8392842" width="9.78490626" height="21.7677915"></rect>
                <path d="M93.475,77.48 L103.077,87.082 C104.775,88.779 107.526,88.779 109.223,87.082 C110.92,85.385 110.92,82.635 109.223,80.938 L99.619,71.334" id="Shape" fill="#F05A27"></path>
                <path d="M87.303,83.656 L96.901,93.257 C98.598,94.952 101.349,94.952 103.046,93.257 C104.743,91.56 104.743,88.81 103.046,87.113 L93.445,77.512" id="Shape" fill="#F05A27"></path>
                <path d="M99.618,71.334 L109.12,80.836 C110.811,82.527 113.587,82.653 115.308,80.993 C117.063,79.301 117.082,76.507 115.366,74.792 L100.573,59.999 C102,61.428 104.314,61.428 105.74,59.999 C107.724,58.018 107.724,54.801 105.74,52.817 L91.14,38.213 C87.728,34.803 82.199,34.803 78.789,38.213 L70.198,29.622 L54.807,45.016 L60.203,50.412 C62.554,52.762 63.527,56.206 62.603,59.397 C61.005,64.901 62.377,71.081 66.714,75.417 L90.729,99.432 C92.444,101.15 95.235,101.129 96.93,99.374 C98.587,97.65 98.461,94.878 96.769,93.186 L92.478,88.894" id="Shape" fill="#F05A27"></path>
                <rect id="Rectangle-path" fill="#ECF4F7" transform="translate(59.043679, 33.856853) rotate(44.983794) translate(-59.043679, -33.856853) " x="54.150226" y="22.9734573" width="9.78690653" height="21.7667921"></rect>
                <path d="M142.508,42.293 L168.418,16.382 C167.061,14.782 165.038,13.761 162.772,13.761 L127.598,13.761 L120.787,20.573 L142.508,42.293 Z" id="Shape" fill="#AAB1BA"></path>
                <path d="M63.276,22.703 L54.335,13.762 L20.488,13.762 C17.883,13.762 15.596,15.111 14.278,17.144 L41.557,44.423 L63.276,22.703 Z" id="Shape" fill="#AAB1BA"></path>
                <path d="M70.063,69.975 L64.458,75.581 C62.885,77.153 62.885,79.702 64.458,81.278 C66.031,82.851 68.582,82.851 70.155,81.278 L75.76,75.672 C77.333,74.1 77.333,71.547 75.76,69.975 C74.187,68.402 71.636,68.402 70.063,69.975 Z" id="Shape" fill="#F05A27"></path>
                <path d="M75.759,75.671 L70.154,81.277 C68.581,82.85 68.581,85.398 70.154,86.974 C71.727,88.547 74.279,88.547 75.851,86.974 L81.454,81.368 C83.029,79.795 83.029,77.243 81.454,75.671 C79.881,74.099 77.333,74.099 75.759,75.671 Z" id="Shape" fill="#F05A27"></path>
                <path d="M81.454,81.369 L75.851,86.975 C74.279,88.548 74.279,91.097 75.851,92.67 C77.424,94.244 79.973,94.244 81.548,92.67 L87.152,87.066 C88.727,85.493 88.727,82.941 87.152,81.369 C85.579,79.796 83.029,79.796 81.454,81.369 Z" id="Shape" fill="#F05A27"></path>
                <path d="M87.151,87.065 L81.547,92.669 C79.972,94.243 79.972,96.792 81.547,98.365 C83.12,99.94 85.67,99.94 87.244,98.365 L92.847,92.762 C94.417,91.189 94.417,88.637 92.847,87.065 C91.276,85.493 88.726,85.493 87.151,87.065 Z" id="Shape" fill="#F05A27"></path>
                <path d="M113.868,27.492 L105.276,36.083 C101.867,32.673 96.338,32.673 92.926,36.083 L78.326,50.688 C76.342,52.672 76.342,55.886 78.326,57.87 C79.752,59.296 82.064,59.296 83.493,57.87 L96.849,44.509" id="Shape" fill="#F05A27"></path>
                <circle id="Oval" fill="#F05A27" cx="145.057" cy="80.532" r="15.368"></circle>
                <circle id="Oval" fill="#F05A27" cx="38.203" cy="80.532" r="15.368"></circle>
                <path d="M166.517,0.974 L16.741,0.974 C7.678,0.974 0.304,8.348 0.304,17.414 L0.304,107.646 C0.304,116.711 7.678,124.084 16.741,124.084 L166.516,124.084 C175.581,124.084 182.956,116.712 182.956,107.646 L182.956,17.414 C182.957,8.348 175.582,0.974 166.517,0.974 Z M179.304,107.646 C179.304,114.694 173.568,120.43 166.517,120.43 L16.741,120.43 C9.692,120.43 3.957,114.694 3.957,107.646 L3.957,17.414 C3.957,10.366 9.692,4.627 16.741,4.627 L166.516,4.627 C173.567,4.627 179.303,10.365 179.303,17.414 L179.303,107.646 L179.304,107.646 Z M168.343,131.057 L14.915,131.057 C6.859,131.057 0.305,137.612 0.305,145.668 L0.305,169.018 C0.305,177.073 6.86,183.631 14.915,183.631 L168.343,183.631 C176.403,183.631 182.957,177.072 182.957,169.018 L182.957,145.668 C182.957,137.611 176.402,131.057 168.343,131.057 Z M179.304,169.018 C179.304,175.059 174.389,179.975 168.343,179.975 L14.915,179.975 C8.873,179.975 3.957,175.059 3.957,169.018 L3.957,145.668 C3.957,139.625 8.873,134.709 14.915,134.709 L168.343,134.709 C174.389,134.709 179.304,139.625 179.304,145.668 L179.304,169.018 Z M128.199,46.417 C128.844,45.787 129.503,45.142 130.126,44.483 C130.278,44.4 130.423,44.303 130.551,44.176 L136.182,38.545 L141.216,43.583 C141.558,43.925 142.025,44.118 142.511,44.118 C142.993,44.118 143.457,43.925 143.801,43.583 L169.709,17.675 C170.424,16.96 170.424,15.804 169.709,15.09 C168.997,14.376 167.839,14.379 167.127,15.09 L142.511,39.707 L137.473,34.672 L134.678,31.877 L123.373,20.572 L128.891,15.051 C129.605,14.34 129.605,13.181 128.891,12.469 C128.178,11.754 127.019,11.754 126.309,12.469 L119.496,19.278 C119.496,19.278 119.496,19.278 119.496,19.28 L112.578,26.199 C112.574,26.199 112.574,26.202 112.571,26.202 L110.486,28.288 C110.105,28.647 109.724,29 109.346,29.345 C107.931,30.641 106.479,31.977 105.15,33.599 C103.39,32.362 101.296,31.697 99.103,31.697 C96.485,31.697 94.012,32.644 92.077,34.374 C91.979,34.456 91.879,34.534 91.783,34.62 C91.759,34.642 91.737,34.663 91.714,34.686 C91.411,34.989 91.103,35.29 90.796,35.593 C87.198,33.201 82.451,33.248 78.9,35.74 L71.491,28.33 L64.571,21.411 L55.631,12.47 C54.916,11.755 53.76,11.755 53.046,12.47 C52.334,13.181 52.334,14.34 53.046,15.052 L60.695,22.703 L46.595,36.803 C46.595,36.803 46.595,36.803 46.593,36.803 L41.558,41.84 L15.571,15.853 C14.857,15.138 13.701,15.138 12.987,15.853 C12.275,16.564 12.275,17.723 12.987,18.435 L40.265,45.714 C40.621,46.072 41.09,46.249 41.556,46.249 C42.025,46.249 42.492,46.072 42.847,45.714 L47.885,40.679 L53.513,46.307 L58.912,51.703 C60.835,53.625 61.577,56.379 60.849,58.89 C59.327,64.142 60.275,69.737 63.305,74.151 L63.168,74.289 C60.883,76.572 60.883,80.285 63.168,82.569 C64.271,83.672 65.709,84.238 67.159,84.273 C67.195,85.722 67.761,87.163 68.864,88.265 C69.968,89.369 71.405,89.935 72.856,89.97 C72.892,91.419 73.458,92.859 74.561,93.962 C75.665,95.066 77.102,95.631 78.553,95.667 C78.589,97.115 79.152,98.554 80.258,99.659 C81.398,100.799 82.899,101.37 84.397,101.37 C85.859,101.37 87.322,100.824 88.45,99.736 L89.437,100.724 C90.606,101.89 92.151,102.531 93.8,102.531 C93.82,102.531 93.839,102.531 93.858,102.531 C95.527,102.513 97.087,101.843 98.245,100.64 C99.385,99.458 99.942,97.909 99.928,96.354 C99.945,96.354 99.961,96.356 99.979,96.356 C101.625,96.356 103.176,95.713 104.34,94.549 C105.507,93.382 106.149,91.833 106.149,90.185 C106.149,90.182 106.149,90.179 106.149,90.176 L106.153,90.176 C107.733,90.176 109.315,89.575 110.518,88.372 C111.681,87.208 112.325,85.657 112.325,84.007 C112.325,84.002 112.325,83.997 112.325,83.992 C113.87,83.997 115.406,83.438 116.577,82.308 C117.781,81.15 118.454,79.59 118.469,77.921 C118.477,76.978 118.27,76.07 117.881,75.243 C118.319,74.779 118.761,74.309 119.205,73.841 L119.613,73.406 C123.851,68.818 125.092,61.786 122.815,55.419 C122.725,51.778 125.387,49.174 128.199,46.417 Z M129.265,40.296 C124.983,36.014 120.708,31.737 116.452,27.492 L120.789,23.156 L133.598,35.966 L129.265,40.296 Z M63.276,25.285 L67.615,29.622 L54.806,42.432 L50.466,38.095 L63.276,25.285 Z M65.748,76.872 L71.354,71.267 C71.782,70.839 72.347,70.624 72.91,70.624 C73.473,70.624 74.039,70.839 74.469,71.267 C75.327,72.124 75.327,73.523 74.469,74.381 L68.863,79.984 C68.005,80.845 66.607,80.845 65.748,79.984 C64.89,79.125 64.89,77.729 65.748,76.872 Z M71.445,82.569 L77.05,76.964 C77.478,76.536 78.044,76.321 78.606,76.321 C79.169,76.321 79.735,76.536 80.163,76.964 C81.024,77.82 81.024,79.22 80.163,80.078 L74.559,85.681 C73.701,86.542 72.302,86.542 71.444,85.681 C70.587,84.822 70.587,83.427 71.445,82.569 Z M76.497,89.822 C76.497,89.234 76.726,88.682 77.143,88.265 L82.748,82.66 C83.176,82.232 83.742,82.017 84.304,82.017 C84.867,82.017 85.433,82.232 85.86,82.66 C86.719,83.517 86.719,84.916 85.86,85.774 L80.257,91.378 C79.84,91.795 79.286,92.024 78.698,92.024 C78.111,92.024 77.559,91.795 77.143,91.378 C76.725,90.963 76.497,90.409 76.497,89.822 Z M82.839,97.073 C81.981,96.216 81.981,94.82 82.839,93.962 L88.445,88.358 C88.873,87.929 89.435,87.714 90.001,87.714 C90.564,87.714 91.13,87.929 91.557,88.358 C92.416,89.214 92.416,90.614 91.557,91.472 L85.952,97.074 C85.093,97.935 83.696,97.933 82.839,97.073 Z M95.613,98.106 C95.138,98.596 94.504,98.872 93.822,98.877 C93.142,98.889 92.5,98.62 92.019,98.138 L91.034,97.156 L94.137,94.053 C94.294,93.899 94.435,93.735 94.57,93.568 L95.478,94.477 C96.499,95.496 96.56,97.126 95.613,98.106 Z M114.039,79.681 C113.06,80.624 111.433,80.563 110.411,79.544 L100.91,70.044 C100.198,69.332 99.043,69.332 98.328,70.044 C98.149,70.223 98.016,70.428 97.928,70.648 C97.837,70.868 97.793,71.1 97.793,71.335 C97.793,71.804 97.972,72.271 98.328,72.627 L107.829,82.128 L107.932,82.23 C108.407,82.704 108.668,83.34 108.668,84.009 C108.668,84.683 108.406,85.314 107.932,85.791 C106.95,86.773 105.349,86.773 104.371,85.791 L99.975,81.396 C99.881,81.303 99.779,81.224 99.668,81.154 L99.293,80.779 C98.581,80.064 97.425,80.064 96.71,80.779 C95.995,81.49 95.995,82.646 96.71,83.36 L101.753,88.403 C102.231,88.881 102.493,89.512 102.493,90.186 C102.493,90.855 102.23,91.49 101.753,91.966 C101.278,92.443 100.648,92.705 99.975,92.705 C99.301,92.705 98.669,92.44 98.192,91.966 L95.837,89.609 C95.766,88.213 95.201,86.836 94.138,85.775 C93.035,84.672 91.598,84.106 90.15,84.07 C90.112,82.619 89.548,81.181 88.445,80.078 C87.34,78.975 85.901,78.409 84.454,78.374 C84.415,76.922 83.852,75.484 82.747,74.381 C81.645,73.278 80.204,72.712 78.756,72.677 C78.72,71.225 78.154,69.788 77.05,68.685 C74.766,66.404 71.052,66.404 68.769,68.685 L65.944,71.51 C63.828,68.083 63.205,63.876 64.358,59.906 C65.457,56.119 64.358,51.986 61.495,49.123 L57.39,45.017 L63.793,38.611 L70.199,32.208 L77.498,39.505 C78.21,40.219 79.365,40.219 80.08,39.505 C82.262,37.323 85.559,36.908 88.161,38.268 L77.032,49.394 C74.339,52.086 74.339,56.468 77.032,59.163 C78.102,60.231 79.504,60.763 80.907,60.763 C82.311,60.763 83.712,60.231 84.783,59.163 L97.142,46.801 L104.45,54.109 C105.719,55.378 105.719,57.442 104.45,58.708 C103.737,59.423 102.579,59.423 101.865,58.708 C101.153,57.997 99.997,57.997 99.282,58.708 C98.927,59.067 98.747,59.533 98.747,60 C98.747,60.469 98.927,60.936 99.282,61.294 L114.075,76.086 C114.554,76.565 114.819,77.206 114.811,77.887 C114.807,78.568 114.53,79.205 114.039,79.681 Z M119.177,55.888 C119.187,56.07 119.224,56.249 119.288,56.421 C121.223,61.583 120.296,67.276 116.938,70.916 L116.539,71.337 C116.204,71.693 115.88,72.038 115.548,72.392 L105.521,62.364 C106.066,62.102 106.581,61.746 107.032,61.294 C109.725,58.602 109.725,54.221 107.032,51.524 L99.578,44.073 C99.783,43.441 99.642,42.721 99.14,42.222 C98.428,41.508 97.269,41.508 96.557,42.222 L82.199,56.578 C81.487,57.29 80.328,57.29 79.616,56.578 C78.346,55.309 78.346,53.245 79.616,51.979 L94.219,37.375 C94.358,37.234 94.506,37.104 94.656,36.977 C95.991,35.937 97.681,35.308 99.386,35.366 C99.434,35.368 99.481,35.368 99.525,35.371 C99.685,35.383 99.842,35.396 100,35.416 C100.053,35.424 100.108,35.433 100.159,35.441 C101.389,35.637 102.601,36.21 103.66,37.27 C103.909,37.519 104.221,37.684 104.557,37.758 C105.009,37.954 105.523,37.956 105.974,37.769 C106.438,37.681 106.856,37.418 107.13,37.026 C107.34,36.728 107.555,36.443 107.776,36.168 L113.035,30.91 C113.314,30.646 113.595,30.38 113.876,30.107 C113.913,30.135 113.948,30.163 113.981,30.19 L126.629,42.836 C126.31,43.156 125.981,43.476 125.646,43.807 C122.462,46.922 118.856,50.451 119.177,55.888 Z M171.995,94.494 L171.995,103.901 C171.995,108.986 167.861,113.125 162.772,113.125 L153.001,113.125 C151.992,113.125 151.175,112.308 151.175,111.298 C151.175,110.291 151.992,109.473 153.001,109.473 L162.772,109.473 C165.844,109.473 168.342,106.973 168.342,103.902 L168.342,94.495 C168.342,93.486 169.162,92.67 170.168,92.67 C171.18,92.669 171.995,93.485 171.995,94.494 Z M140.581,111.298 C140.581,112.308 139.763,113.125 138.753,113.125 L136.014,113.125 C135.007,113.125 134.187,112.308 134.187,111.298 C134.187,110.291 135.007,109.473 136.014,109.473 L138.753,109.473 C139.763,109.473 140.581,110.291 140.581,111.298 Z M149.35,111.298 C149.35,112.308 148.53,113.125 147.523,113.125 L145.513,113.125 C144.502,113.125 143.686,112.308 143.686,111.298 C143.686,110.291 144.502,109.473 145.513,109.473 L147.523,109.473 C148.529,109.473 149.35,110.291 149.35,111.298 Z M32.085,111.297 C32.085,112.308 31.265,113.125 30.258,113.125 L20.487,113.125 C15.399,113.125 11.261,108.986 11.261,103.901 L11.261,94.493 C11.261,93.485 12.08,92.669 13.087,92.669 C14.097,92.669 14.914,93.484 14.914,94.493 L14.914,103.901 C14.914,106.972 17.413,109.472 20.487,109.472 L30.258,109.472 C31.266,109.473 32.085,110.291 32.085,111.297 Z M49.071,111.298 C49.071,112.308 48.255,113.125 47.244,113.125 L44.505,113.125 C43.494,113.125 42.678,112.308 42.678,111.298 C42.678,110.291 43.494,109.473 44.505,109.473 L47.244,109.473 C48.255,109.473 49.071,110.291 49.071,111.298 Z M39.572,111.297 C39.572,112.308 38.756,113.125 37.746,113.125 L35.738,113.125 C34.731,113.125 33.911,112.308 33.911,111.297 C33.911,110.291 34.731,109.473 35.738,109.473 L37.746,109.473 C38.756,109.473 39.572,110.291 39.572,111.297 Z M162.252,80.532 C162.252,71.05 154.538,63.337 145.056,63.337 C135.578,63.337 127.864,71.05 127.864,80.532 C127.864,90.012 135.579,97.724 145.056,97.724 C154.538,97.725 162.252,90.012 162.252,80.532 Z M131.516,80.532 C131.516,73.064 137.592,66.99 145.056,66.99 C152.525,66.99 158.6,73.065 158.6,80.532 C158.6,87.998 152.525,94.072 145.056,94.072 C137.592,94.072 131.516,87.998 131.516,80.532 Z M145.324,91.256 C144.314,91.256 143.498,90.439 143.498,89.43 L143.498,88.467 L142.144,88.467 C141.136,88.467 140.318,87.651 140.318,86.64 C140.318,85.633 141.136,84.813 142.144,84.813 L145.84,84.813 C146.009,84.813 146.144,84.678 146.144,84.509 L146.144,82.661 C146.144,82.493 146.009,82.357 145.84,82.357 L145.056,82.357 L144.276,82.357 C142.094,82.357 140.318,80.581 140.318,78.399 L140.318,76.551 C140.318,74.636 141.688,73.032 143.499,72.671 L143.499,71.632 C143.499,70.622 144.315,69.805 145.325,69.805 C146.334,69.805 147.15,70.621 147.15,71.632 L147.15,72.593 L147.971,72.593 C148.98,72.593 149.797,73.411 149.797,74.42 C149.797,75.428 148.98,76.247 147.971,76.247 L144.276,76.247 C144.108,76.247 143.973,76.382 143.973,76.551 L143.973,78.4 C143.973,78.568 144.108,78.703 144.276,78.703 L145.056,78.703 L145.84,78.703 C148.023,78.703 149.797,80.479 149.797,82.662 L149.797,84.51 C149.797,86.232 148.69,87.697 147.15,88.24 L147.15,89.429 C147.149,90.439 146.333,91.256 145.324,91.256 Z M38.202,63.337 C28.72,63.337 21.009,71.05 21.009,80.532 C21.009,90.012 28.72,97.724 38.202,97.724 C47.684,97.724 55.398,90.012 55.398,80.532 C55.397,71.05 47.684,63.337 38.202,63.337 Z M38.202,94.072 C30.737,94.072 24.661,87.998 24.661,80.532 C24.661,73.064 30.736,66.99 38.202,66.99 C45.67,66.99 51.742,73.065 51.742,80.532 C51.741,87.998 45.67,94.072 38.202,94.072 Z M37.115,76.552 L37.115,78.4 C37.115,78.568 37.253,78.703 37.421,78.703 L38.202,78.703 L38.983,78.703 C41.168,78.703 42.942,80.479 42.942,82.662 L42.942,84.51 C42.942,86.232 41.836,87.697 40.296,88.24 L40.296,89.429 C40.296,90.438 39.477,91.255 38.47,91.255 C37.459,91.255 36.643,90.438 36.643,89.429 L36.643,88.466 L35.288,88.466 C34.281,88.466 33.462,87.65 33.462,86.639 C33.462,85.632 34.281,84.812 35.288,84.812 L38.982,84.812 C39.15,84.812 39.288,84.677 39.288,84.508 L39.288,82.66 C39.288,82.491 39.151,82.356 38.982,82.356 L38.201,82.356 L37.42,82.356 C35.238,82.356 33.462,80.58 33.462,78.398 L33.462,76.55 C33.462,74.635 34.83,73.031 36.643,72.67 L36.643,71.631 C36.643,70.621 37.459,69.804 38.47,69.804 C39.477,69.804 40.296,70.62 40.296,71.631 L40.296,72.592 L41.115,72.592 C42.125,72.592 42.942,73.41 42.942,74.419 C42.942,75.427 42.125,76.246 41.115,76.246 L37.42,76.246 C37.253,76.248 37.115,76.383 37.115,76.552 Z" id="Shape" fill="#1C1D21"></path>
            </g>
        </g>
    </g>
</svg>