<?xml version="1.0" encoding="UTF-8"?>
<svg width="192px" height="192px" viewBox="0 0 192 192" version="1.1" xmlns="http://www.w3.org/2000/svg" xmlns:xlink="http://www.w3.org/1999/xlink">
    <!-- Generator: Sketch 50.2 (55047) - http://www.bohemiancoding.com/sketch -->
    <title>onlinecommunity-icon</title>
    <desc>Created with Sketch.</desc>
    <defs></defs>
    <g id="Page-1" stroke="none" stroke-width="1" fill="none" fill-rule="evenodd">
        <g id="onlinecommunity-icon" fill-rule="nonzero">
            <g id="Layer_4">
                <path d="M153.3,112.177 L16.116,112.177 C8.725,112.177 2.733,106.19 2.733,98.793 L2.733,16.15 C2.733,8.756 8.726,2.766 16.116,2.766 L153.3,2.766 C160.692,2.766 166.684,8.756 166.684,16.15 L166.684,98.793 C166.684,106.189 160.691,112.177 153.3,112.177 Z" id="Shape" fill="#ECF4F7"></path>
                <path d="M153.3,166.72 L16.116,166.72 C8.725,166.72 2.733,160.727 2.733,153.331 L2.733,135.293 C2.733,127.902 8.726,121.909 16.116,121.909 L153.3,121.909 C160.692,121.909 166.684,127.902 166.684,135.293 L166.684,153.331 C166.684,160.727 160.691,166.72 153.3,166.72 Z" id="Shape" fill="#ECF4F7"></path>
                <path d="M19.545,102.141 C15.801,102.141 12.769,99.104 12.769,95.366 L12.769,19.578 C12.769,15.836 15.801,12.802 19.545,12.802 L149.871,12.802 C153.61,12.802 156.646,15.836 156.646,19.578 L156.646,95.365 C156.646,99.103 153.61,102.14 149.871,102.14 L19.545,102.14 L19.545,102.141 Z" id="Shape" fill="#4EA3DA"></path>
                <rect id="Rectangle-path" fill="#4EA3DA" x="40.372" y="131.945" width="8.368" height="9.858"></rect>
                <rect id="Rectangle-path" fill="#4EA3DA" x="53.755" y="131.945" width="8.369" height="9.858"></rect>
                <rect id="Rectangle-path" fill="#4EA3DA" x="67.14" y="131.945" width="8.368" height="9.858"></rect>
                <rect id="Rectangle-path" fill="#4EA3DA" x="26.987" y="131.945" width="8.369" height="9.858"></rect>
                <path d="M21.973,131.945 L17.186,131.945 C14.748,131.945 12.769,133.924 12.769,136.363 L12.769,141.803 L21.973,141.803 L21.973,131.945 Z" id="Shape" fill="#4EA3DA"></path>
                <rect id="Rectangle-path" fill="#4EA3DA" x="80.523" y="131.945" width="8.364" height="9.858"></rect>
                <rect id="Rectangle-path" fill="#83E1E5" x="134.061" y="131.945" width="8.363" height="9.858"></rect>
                <rect id="Rectangle-path" fill="#83E1E5" x="120.676" y="131.945" width="8.362" height="9.858"></rect>
                <path d="M12.769,146.819 L12.769,152.26 C12.769,154.698 14.748,156.677 17.186,156.677 L21.973,156.677 L21.973,146.819 L12.769,146.819 Z" id="Shape" fill="#4EA3DA"></path>
                <path d="M156.646,141.804 L156.646,136.364 C156.646,133.925 154.669,131.946 152.223,131.946 L147.445,131.946 L147.445,141.804 L156.646,141.804 Z" id="Shape" fill="#83E1E5"></path>
                <rect id="Rectangle-path" fill="#4EA3DA" x="93.907" y="131.945" width="8.364" height="9.858"></rect>
                <rect id="Rectangle-path" fill="#83E1E5" x="107.292" y="131.945" width="8.362" height="9.858"></rect>
                <rect id="Rectangle-path" fill="#83E1E5" x="120.676" y="146.819" width="8.362" height="9.858"></rect>
                <rect id="Rectangle-path" fill="#83E1E5" x="134.061" y="146.819" width="8.363" height="9.858"></rect>
                <rect id="Rectangle-path" fill="#83E1E5" x="107.292" y="146.819" width="8.362" height="9.858"></rect>
                <path d="M147.445,156.678 L152.223,156.678 C154.669,156.678 156.646,154.699 156.646,152.261 L156.646,146.82 L147.445,146.82 L147.445,156.678 Z" id="Shape" fill="#83E1E5"></path>
                <rect id="Rectangle-path" fill="#4EA3DA" x="26.987" y="146.819" width="8.369" height="9.858"></rect>
                <rect id="Rectangle-path" fill="#4EA3DA" x="40.372" y="146.819" width="8.368" height="9.858"></rect>
                <rect id="Rectangle-path" fill="#4EA3DA" x="53.755" y="146.819" width="8.369" height="9.858"></rect>
                <polygon id="Shape" fill="#4EA3DA" points="88.888 146.819 84.539 146.819 80.523 146.819 67.14 146.819 67.14 156.678 80.523 156.678 84.539 156.678 88.888 156.678 102.271 156.678 102.271 146.819"></polygon>
                <circle id="Oval" fill="#F05A27" cx="145.279" cy="78.058" r="30.844"></circle>
                <path d="M101.235,189.358 L101.235,152.95 C101.235,128.621 120.953,108.904 145.281,108.904 C169.606,108.904 189.328,128.621 189.328,152.95 L189.328,189.358" id="Shape" fill="#F05A27"></path>
                <path d="M48.792,55.635 C48.792,60.285 45.024,64.052 40.372,64.052 C35.724,64.052 31.951,60.285 31.951,55.635 C31.951,50.985 35.724,47.211 40.372,47.211 C45.024,47.211 48.792,50.985 48.792,55.635 Z" id="Shape" fill="#F05A27"></path>
                <path d="M28.344,86.024 L28.344,76.085 C28.344,69.436 33.734,64.052 40.372,64.052 C47.015,64.052 52.398,69.436 52.398,76.085 L52.398,86.024" id="Shape" fill="#F05A27"></path>
                <path d="M72.845,55.635 C72.845,60.285 69.072,64.052 64.426,64.052 C59.773,64.052 56.005,60.285 56.005,55.635 C56.005,50.985 59.773,47.211 64.426,47.211 C69.072,47.211 72.845,50.985 72.845,55.635 Z" id="Shape" fill="#F05A27"></path>
                <path d="M52.398,86.024 L52.398,76.085 C52.398,69.436 57.781,64.052 64.425,64.052 C71.068,64.052 76.452,69.436 76.452,76.085 L76.452,86.024" id="Shape" fill="#F05A27"></path>
                <path d="M96.899,55.635 C96.899,60.285 93.125,64.052 88.473,64.052 C83.826,64.052 80.051,60.285 80.051,55.635 C80.051,50.985 83.825,47.211 88.473,47.211 C93.125,47.211 96.899,50.985 96.899,55.635 Z" id="Shape" fill="#F05A27"></path>
                <path d="M76.452,86.024 L76.452,76.085 C76.452,69.436 81.835,64.052 88.473,64.052 C95.115,64.052 100.498,69.436 100.498,76.085 L100.498,86.024" id="Shape" fill="#F05A27"></path>
                <path d="M98.395,7.298 L98.395,24.584 C98.395,27.089 100.424,29.119 102.928,29.119 L126.803,29.119 C128.004,29.119 129.16,29.597 130.012,30.449 L138.887,39.324 L138.887,29.12 L138.887,7.298 C138.887,4.793 136.856,2.765 134.348,2.765 L102.928,2.765 C100.424,2.766 98.395,4.793 98.395,7.298 Z" id="Shape" fill="#ECF4F7"></path>
                <path d="M0.828,35.513 L0.828,26.377 C0.828,25.325 1.68,24.47 2.733,24.47 C3.785,24.47 4.636,25.325 4.636,26.377 L4.636,35.513 C4.636,36.566 3.785,37.42 2.733,37.42 C1.68,37.419 0.828,36.565 0.828,35.513 Z M2.733,46.938 C3.785,46.938 4.636,46.087 4.636,45.034 L4.636,41.799 C4.636,40.747 3.785,39.893 2.733,39.893 C1.68,39.893 0.828,40.747 0.828,41.799 L0.828,45.034 C0.828,46.088 1.68,46.938 2.733,46.938 Z M146.421,4.67 L153.3,4.67 C159.626,4.67 164.781,9.817 164.781,16.15 L164.781,43.893 C164.781,44.943 165.632,45.798 166.683,45.798 C167.736,45.798 168.588,44.944 168.588,43.893 L168.588,16.15 C168.588,7.718 161.732,0.862 153.299,0.862 L146.42,0.862 C145.367,0.862 144.516,1.713 144.516,2.765 C144.517,3.815 145.368,4.67 146.421,4.67 Z M2.733,21.807 C3.785,21.807 4.636,20.953 4.636,19.9 L4.636,16.15 C4.636,9.817 9.784,4.67 16.116,4.67 L90.446,4.67 C91.499,4.67 92.349,3.815 92.349,2.766 C92.349,1.713 91.498,0.863 90.446,0.863 L16.116,0.863 C7.684,0.863 0.828,7.718 0.828,16.151 L0.828,19.901 C0.828,20.953 1.68,21.807 2.733,21.807 Z M16.116,114.08 L112.658,114.08 C113.712,114.08 114.562,113.23 114.562,112.177 C114.562,111.124 113.711,110.274 112.658,110.274 L16.116,110.274 C9.783,110.274 4.636,105.126 4.636,98.794 L4.636,53.032 C4.636,51.98 3.785,51.128 2.733,51.128 C1.68,51.128 0.828,51.98 0.828,53.032 L0.828,98.793 C0.828,107.225 7.685,114.08 16.116,114.08 Z M30.398,12.802 C30.398,11.75 29.546,10.898 28.494,10.898 L19.545,10.898 C14.76,10.898 10.866,14.793 10.866,19.578 L10.866,28.194 C10.866,29.247 11.717,30.097 12.769,30.097 C13.822,30.097 14.673,29.246 14.673,28.194 L14.673,19.578 C14.673,16.891 16.859,14.706 19.545,14.706 L28.494,14.706 C29.547,14.707 30.398,13.854 30.398,12.802 Z M44.053,14.707 C45.105,14.707 45.956,13.855 45.956,12.803 C45.956,11.751 45.104,10.899 44.053,10.899 L41.545,10.899 C40.493,10.899 39.642,11.751 39.642,12.803 C39.642,13.855 40.493,14.707 41.545,14.707 L44.053,14.707 Z M35.356,14.707 C36.409,14.707 37.259,13.855 37.259,12.803 C37.259,11.751 36.408,10.899 35.356,10.899 L33.515,10.899 C32.463,10.899 31.612,11.751 31.612,12.803 C31.612,13.855 32.464,14.707 33.515,14.707 L35.356,14.707 Z M191.232,152.95 L191.232,189.358 C191.232,190.411 190.38,191.267 189.328,191.267 C188.276,191.267 187.425,190.411 187.425,189.358 L187.425,152.95 C187.425,129.714 168.519,110.808 145.281,110.808 C122.039,110.808 103.14,129.713 103.14,152.95 L103.14,189.358 C103.14,190.411 102.283,191.267 101.235,191.267 C100.182,191.267 99.332,190.411 99.332,189.358 L99.332,168.617 L14.443,168.617 C6.937,168.617 0.828,162.511 0.828,155.01 L0.828,133.619 C0.828,126.113 6.937,120.006 14.443,120.006 L113.28,120.006 C118.824,114.622 125.709,110.618 133.386,108.559 C121.193,103.791 112.532,91.926 112.532,78.059 C112.532,60.001 127.221,45.309 145.281,45.309 C163.336,45.309 178.025,60.002 178.025,78.059 C178.025,91.926 169.364,103.792 157.171,108.559 C176.761,113.816 191.232,131.728 191.232,152.95 Z M109.777,123.813 L14.443,123.813 C9.037,123.813 4.636,128.213 4.636,133.62 L4.636,155.011 C4.636,160.418 9.037,164.812 14.443,164.812 L99.332,164.812 L99.332,152.952 C99.332,141.896 103.25,131.751 109.777,123.813 Z M145.281,107.001 C161.237,107.001 174.219,94.019 174.219,78.058 C174.219,62.097 161.238,49.116 145.281,49.116 C129.321,49.116 116.341,62.097 116.341,78.058 C116.341,94.019 129.321,107.001 145.281,107.001 Z M88.474,45.308 C94.166,45.308 98.803,49.942 98.803,55.636 C98.803,58.908 97.268,61.827 94.886,63.72 C99.35,66.044 102.404,70.714 102.404,76.086 L102.404,86.025 C102.404,87.071 101.553,87.923 100.5,87.923 C99.448,87.923 98.597,87.071 98.597,86.025 L98.597,76.086 C98.597,70.501 94.059,65.962 88.475,65.962 C82.896,65.962 78.356,70.501 78.356,76.086 L78.356,86.025 C78.356,87.071 77.499,87.923 76.453,87.923 C75.401,87.923 74.549,87.071 74.549,86.025 L74.549,76.086 C74.549,70.501 70.005,65.962 64.426,65.962 C58.847,65.962 54.303,70.501 54.303,76.086 L54.303,86.025 C54.303,87.071 53.451,87.923 52.399,87.923 C51.346,87.923 50.495,87.071 50.495,86.025 L50.495,76.086 C50.495,70.501 45.956,65.962 40.372,65.962 C34.792,65.962 30.248,70.501 30.248,76.086 L30.248,86.025 C30.248,87.071 29.397,87.923 28.344,87.923 C27.298,87.923 26.441,87.071 26.441,86.025 L26.441,76.086 C26.441,70.714 29.501,66.044 33.964,63.72 C31.578,61.827 30.048,58.908 30.048,55.636 C30.048,49.942 34.677,45.308 40.372,45.308 C46.065,45.308 50.696,49.942 50.696,55.636 C50.696,58.908 49.166,61.827 46.785,63.72 C49.12,64.939 51.071,66.797 52.399,69.069 C53.728,66.797 55.677,64.939 58.013,63.72 C55.631,61.827 54.101,58.908 54.101,55.636 C54.101,49.942 58.731,45.308 64.426,45.308 C70.12,45.308 74.75,49.942 74.75,55.636 C74.75,58.908 73.22,61.827 70.833,63.72 C73.174,64.939 75.125,66.797 76.453,69.069 C77.782,66.797 79.73,64.939 82.067,63.72 C79.685,61.827 78.15,58.908 78.15,55.636 C78.149,49.941 82.785,45.308 88.474,45.308 Z M40.372,62.154 C43.967,62.154 46.888,59.226 46.888,55.635 C46.888,52.04 43.967,49.115 40.372,49.115 C36.777,49.115 33.855,52.039 33.855,55.635 C33.855,59.227 36.777,62.154 40.372,62.154 Z M64.425,62.154 C68.02,62.154 70.941,59.226 70.941,55.635 C70.941,52.04 68.02,49.115 64.425,49.115 C60.83,49.115 57.908,52.039 57.908,55.635 C57.908,59.227 60.83,62.154 64.425,62.154 Z M88.474,49.116 C84.883,49.116 81.957,52.04 81.957,55.636 C81.957,59.227 84.883,62.155 88.474,62.155 C92.069,62.155 94.995,59.227 94.995,55.636 C94.995,52.04 92.068,49.116 88.474,49.116 Z M96.489,24.584 L96.489,7.298 C96.489,3.749 99.379,0.862 102.927,0.862 L134.347,0.862 C137.903,0.862 140.789,3.749 140.789,7.298 L140.789,39.323 C140.789,40.093 140.322,40.786 139.61,41.08 C139.375,41.177 139.127,41.226 138.885,41.226 C138.391,41.226 137.902,41.031 137.539,40.668 L128.663,31.793 C128.163,31.296 127.507,31.022 126.801,31.022 L102.926,31.022 C99.379,31.023 96.489,28.136 96.489,24.584 Z M100.299,24.584 C100.299,26.037 101.477,27.215 102.928,27.215 L126.803,27.215 C128.521,27.215 130.139,27.885 131.358,29.102 L136.983,34.724 L136.983,7.298 C136.983,5.848 135.797,4.67 134.348,4.67 L102.928,4.67 C101.477,4.67 100.299,5.848 100.299,7.298 L100.299,24.584 Z M109.88,18.632 L110.894,18.632 C111.946,18.632 112.796,17.78 112.796,16.728 C112.796,15.675 111.945,14.825 110.894,14.825 L109.88,14.825 C108.828,14.825 107.978,15.676 107.978,16.728 C107.978,17.78 108.828,18.632 109.88,18.632 Z M118.129,18.632 L119.147,18.632 C120.2,18.632 121.051,17.78 121.051,16.728 C121.051,15.675 120.199,14.825 119.147,14.825 L118.129,14.825 C117.081,14.825 116.225,15.676 116.225,16.728 C116.225,17.78 117.081,18.632 118.129,18.632 Z M126.382,18.632 L127.401,18.632 C128.447,18.632 129.305,17.78 129.305,16.728 C129.305,15.675 128.447,14.825 127.401,14.825 L126.382,14.825 C125.33,14.825 124.479,15.676 124.479,16.728 C124.479,17.78 125.33,18.632 126.382,18.632 Z" id="Shape" fill="#1C1D21"></path>
            </g>
        </g>
    </g>
</svg>