<?xml version="1.0" encoding="UTF-8"?>
<svg width="176px" height="187px" viewBox="0 0 176 187" version="1.1" xmlns="http://www.w3.org/2000/svg" xmlns:xlink="http://www.w3.org/1999/xlink">
    <!-- Generator: Sketch 50.2 (55047) - http://www.bohemiancoding.com/sketch -->
    <title>orm-icon</title>
    <desc>Created with Sketch.</desc>
    <defs></defs>
    <g id="Page-1" stroke="none" stroke-width="1" fill="none" fill-rule="evenodd">
        <g id="orm-icon" transform="translate(-7.000000, 0.000000)" fill-rule="nonzero">
            <g id="Layer_9" transform="translate(7.000000, 0.000000)">
                <path d="M159.421,127.634 L16.037,127.634 C8.314,127.634 2.053,121.366 2.053,113.643 L2.053,27.261 C2.053,19.538 8.314,13.277 16.037,13.277 L159.421,13.277 C167.149,13.277 173.411,19.538 173.411,27.261 L173.411,113.642 C173.411,121.366 167.148,127.634 159.421,127.634 Z" id="Shape" fill="#ECF4F7"></path>
                <path d="M19.624,117.139 C15.712,117.139 12.541,113.969 12.541,110.057 L12.541,30.848 C12.541,26.936 15.711,23.766 19.624,23.766 L155.839,23.766 C159.746,23.766 162.917,26.936 162.917,30.848 L162.917,110.057 C162.917,113.969 159.746,117.139 155.839,117.139 L19.624,117.139 Z" id="Shape" fill="#468ECB"></path>
                <path d="M161.168,184.635 L14.29,184.635 C7.534,184.635 2.053,179.154 2.053,172.392 L2.053,150.044 C2.053,143.281 7.533,137.802 14.29,137.802 L161.168,137.802 C167.93,137.802 173.411,143.281 173.411,150.044 L173.411,172.392 C173.411,179.153 167.93,184.635 161.168,184.635 Z" id="Shape" fill="#ECF4F7"></path>
                <path d="M58.261,60.795 C58.261,64.882 54.945,68.198 50.859,68.198 C46.767,68.198 43.451,64.882 43.451,60.795 C43.451,56.704 46.767,53.387 50.859,53.387 C54.945,53.387 58.261,56.704 58.261,60.795 Z" id="Shape" fill="#F05A27"></path>
                <path d="M40.281,87.517 L40.281,78.777 C40.281,72.937 45.012,68.199 50.859,68.199 C56.7,68.199 61.431,72.937 61.431,78.777 L61.431,87.517" id="Shape" fill="#F05A27"></path>
                <path d="M132.013,60.795 C132.013,64.882 128.697,68.198 124.605,68.198 C120.519,68.198 117.203,64.882 117.203,60.795 C117.203,56.704 120.519,53.387 124.605,53.387 C128.696,53.387 132.013,56.704 132.013,60.795 Z" id="Shape" fill="#F05A27"></path>
                <path d="M114.032,87.517 L114.032,78.777 C114.032,72.937 118.763,68.199 124.604,68.199 C130.445,68.199 135.182,72.937 135.182,78.777 L135.182,87.517" id="Shape" fill="#F05A27"></path>
                <path d="M95.134,9.686 C95.134,13.778 91.823,17.095 87.732,17.095 C83.641,17.095 80.324,13.778 80.324,9.686 C80.324,5.6 83.641,2.284 87.732,2.284 C91.823,2.283 95.134,5.599 95.134,9.686 Z" id="Shape" fill="#F05A27"></path>
                <path d="M77.153,36.413 L77.153,27.672 C77.153,21.826 81.892,17.094 87.732,17.094 C93.572,17.094 98.305,21.826 98.305,27.672 L98.305,36.413" id="Shape" fill="#F05A27"></path>
                <circle id="Oval" fill="#F05A27" cx="87.729" cy="100.907" r="7.405"></circle>
                <path d="M77.153,127.634 L77.153,118.887 C77.153,113.048 81.892,108.314 87.732,108.314 C93.572,108.314 98.305,113.048 98.305,118.887 L98.305,127.634" id="Shape" fill="#F05A27"></path>
                <path d="M175.271,27.261 L175.271,113.642 C175.271,122.383 168.161,129.494 159.42,129.494 L106.264,129.494 C105.234,129.494 104.403,128.655 104.403,127.634 C104.403,126.604 105.234,125.767 106.264,125.767 L159.42,125.767 C166.108,125.767 171.55,120.332 171.55,113.643 L171.55,27.261 C171.55,20.578 166.109,15.138 159.42,15.138 L102.767,15.138 C101.737,15.138 100.906,14.301 100.906,13.277 C100.906,12.249 101.737,11.416 102.767,11.416 L159.42,11.416 C168.161,11.416 175.271,18.521 175.271,27.261 Z M16.037,129.494 L69.374,129.494 C70.396,129.494 71.229,128.655 71.229,127.634 C71.229,126.604 70.396,125.767 69.374,125.767 L16.037,125.767 C9.355,125.767 3.914,120.332 3.914,113.643 L3.914,27.261 C3.914,20.578 9.355,15.137 16.037,15.137 L72.341,15.137 C73.37,15.137 74.202,14.3 74.202,13.276 C74.202,12.248 73.37,11.415 72.341,11.415 L16.037,11.415 C7.304,11.415 0.192,18.52 0.192,27.26 L0.192,113.641 C0.192,122.384 7.304,129.494 16.037,129.494 Z M19.624,21.905 C14.694,21.905 10.682,25.918 10.682,30.847 L10.682,39.852 C10.682,40.88 11.513,41.713 12.542,41.713 C13.57,41.713 14.403,40.88 14.403,39.852 L14.403,30.847 C14.403,27.97 16.747,25.626 19.625,25.626 L28.978,25.626 C30.007,25.626 30.838,24.793 30.838,23.765 C30.838,22.736 30.006,21.905 28.978,21.905 L19.624,21.905 Z M45.244,25.626 C46.266,25.626 47.104,24.793 47.104,23.765 C47.104,22.736 46.266,21.905 45.244,21.905 L42.619,21.905 C41.59,21.905 40.759,22.736 40.759,23.765 C40.759,24.793 41.59,25.626 42.619,25.626 L45.244,25.626 Z M34.227,21.905 C33.199,21.905 32.367,22.736 32.367,23.765 C32.367,24.793 33.2,25.626 34.227,25.626 L36.15,25.626 C37.178,25.626 38.01,24.793 38.01,23.765 C38.01,22.736 37.178,21.905 36.15,21.905 L34.227,21.905 Z M155.839,118.999 C160.768,118.999 164.781,114.986 164.781,110.057 L164.781,101.052 C164.781,100.025 163.944,99.191 162.917,99.191 C161.894,99.191 161.056,100.025 161.056,101.052 L161.056,110.057 C161.056,112.934 158.717,115.278 155.839,115.278 L146.482,115.278 C145.458,115.278 144.621,116.112 144.621,117.139 C144.621,118.168 145.458,118.999 146.482,118.999 L155.839,118.999 Z M130.22,115.277 C129.192,115.277 128.359,116.111 128.359,117.138 C128.359,118.167 129.192,118.998 130.22,118.998 L132.844,118.998 C133.873,118.998 134.704,118.167 134.704,117.138 C134.704,116.111 133.873,115.277 132.844,115.277 L130.22,115.277 Z M141.237,118.999 C142.265,118.999 143.097,118.168 143.097,117.139 C143.097,116.112 142.265,115.278 141.237,115.278 L139.314,115.278 C138.285,115.278 137.454,116.112 137.454,117.139 C137.454,118.168 138.285,118.999 139.314,118.999 L141.237,118.999 Z M175.271,150.044 L175.271,172.392 C175.271,180.17 168.946,186.496 161.167,186.496 L14.29,186.496 C6.517,186.496 0.192,180.171 0.192,172.392 L0.192,150.044 C0.192,142.264 6.516,135.941 14.29,135.941 L161.168,135.941 C168.946,135.941 175.271,142.264 175.271,150.044 Z M171.551,150.044 C171.551,144.316 166.895,139.662 161.168,139.662 L14.29,139.662 C8.568,139.662 3.914,144.316 3.914,150.044 L3.914,172.392 C3.914,178.115 8.568,182.775 14.29,182.775 L161.168,182.775 C166.895,182.775 171.551,178.115 171.551,172.392 L171.551,150.044 Z M59.571,87.517 L59.571,78.777 C59.571,73.972 55.659,70.06 50.859,70.06 C46.053,70.06 42.141,73.972 42.141,78.777 L42.141,87.517 C42.141,88.546 41.308,89.379 40.281,89.379 C39.252,89.379 38.42,88.546 38.42,87.517 L38.42,78.777 C38.42,74.084 41.034,69.987 44.884,67.873 C42.872,66.169 41.59,63.629 41.59,60.796 C41.59,55.687 45.745,51.527 50.86,51.527 C55.969,51.527 60.123,55.687 60.123,60.796 C60.123,63.629 58.841,66.17 56.829,67.873 C60.679,69.987 63.293,74.084 63.293,78.777 L63.293,87.517 C63.293,88.546 62.461,89.379 61.432,89.379 C60.403,89.378 59.571,88.546 59.571,87.517 Z M50.859,66.338 C53.911,66.338 56.401,63.854 56.401,60.796 C56.401,57.739 53.911,55.249 50.859,55.249 C47.802,55.249 45.312,57.739 45.312,60.796 C45.312,63.854 47.802,66.338 50.859,66.338 Z M118.635,67.873 C116.623,66.169 115.342,63.629 115.342,60.796 C115.342,55.687 119.494,51.527 124.605,51.527 C129.713,51.527 133.874,55.687 133.874,60.796 C133.874,63.629 132.592,66.17 130.579,67.873 C134.43,69.987 137.045,74.084 137.045,78.777 L137.045,87.517 C137.045,88.546 136.212,89.379 135.184,89.379 C134.157,89.379 133.323,88.546 133.323,87.517 L133.323,78.777 C133.323,73.972 129.41,70.06 124.606,70.06 C119.8,70.06 115.894,73.972 115.894,78.777 L115.894,87.517 C115.894,88.546 115.061,89.379 114.034,89.379 C113.005,89.379 112.175,88.546 112.175,87.517 L112.175,78.777 C112.173,74.083 114.785,69.986 118.635,67.873 Z M124.604,66.338 C127.662,66.338 130.152,63.854 130.152,60.796 C130.152,57.739 127.662,55.249 124.604,55.249 C121.546,55.249 119.062,57.739 119.062,60.796 C119.063,63.854 121.547,66.338 124.604,66.338 Z M75.293,36.413 L75.293,27.672 C75.293,22.973 77.913,18.881 81.757,16.768 C79.744,15.065 78.462,12.524 78.462,9.686 C78.462,4.577 82.622,0.423 87.731,0.423 C92.84,0.423 97.001,4.577 97.001,9.686 C97.001,12.524 95.719,15.065 93.701,16.768 C97.551,18.882 100.164,22.973 100.164,27.672 L100.164,36.413 C100.164,37.441 99.332,38.273 98.305,38.273 C97.282,38.273 96.445,37.441 96.445,36.413 L96.445,27.672 C96.445,22.867 92.538,18.955 87.732,18.955 C82.925,18.955 79.014,22.867 79.014,27.672 L79.014,36.413 C79.014,37.441 78.182,38.273 77.153,38.273 C76.13,38.273 75.293,37.441 75.293,36.413 Z M87.731,15.233 C90.789,15.233 93.274,12.743 93.274,9.685 C93.274,6.627 90.789,4.143 87.731,4.143 C84.674,4.143 82.183,6.627 82.183,9.685 C82.183,12.743 84.674,15.233 87.731,15.233 Z M96.444,127.634 L96.444,118.887 C96.444,114.082 92.537,110.175 87.731,110.175 C82.924,110.175 79.013,114.082 79.013,118.887 L79.013,127.634 C79.013,128.655 78.181,129.494 77.152,129.494 C76.129,129.494 75.292,128.655 75.292,127.634 L75.292,118.887 C75.292,114.194 77.912,110.102 81.756,107.984 C79.743,106.285 78.461,103.746 78.461,100.908 C78.461,95.797 82.621,91.638 87.73,91.638 C92.839,91.638 97,95.797 97,100.908 C97,103.746 95.718,106.285 93.7,107.984 C97.55,110.102 100.163,114.194 100.163,118.887 L100.163,127.634 C100.163,128.655 99.331,129.494 98.304,129.494 C97.281,129.494 96.444,128.655 96.444,127.634 Z M87.731,106.453 C90.789,106.453 93.274,103.964 93.274,100.907 C93.274,97.848 90.789,95.363 87.731,95.363 C84.674,95.363 82.183,97.848 82.183,100.907 C82.183,103.964 84.674,106.453 87.731,106.453 Z" id="Shape" fill="#1C1D21"></path>
                <g id="Group" transform="translate(15.000000, 146.000000)" fill="#1C1D21">
                    <path d="M25.376,9.782 C25.657,10.648 25.427,11.587 24.769,12.227 L20.722,16.174 L21.684,21.741 C21.83,22.64 21.47,23.541 20.728,24.082 C20.312,24.378 19.823,24.536 19.329,24.536 C18.952,24.536 18.57,24.44 18.215,24.255 L13.212,21.631 L8.21,24.255 C7.4,24.688 6.435,24.614 5.692,24.082 C4.956,23.541 4.596,22.641 4.748,21.741 L5.703,16.174 L1.656,12.227 C0.999,11.586 0.768,10.648 1.05,9.782 C1.332,8.911 2.073,8.288 2.984,8.152 L8.571,7.342 L11.072,2.278 C11.476,1.452 12.298,0.946 13.213,0.946 C14.13,0.946 14.95,1.452 15.356,2.278 L17.857,7.342 L23.449,8.152 C24.353,8.288 25.09,8.911 25.376,9.782 Z" id="Shape"></path>
                    <path d="M21.964,10.884 L17.158,10.194 C16.383,10.074 15.708,9.591 15.359,8.888 L13.212,4.526 L11.06,8.888 C10.718,9.591 10.043,10.074 9.261,10.194 L4.461,10.884 L7.941,14.279 C8.503,14.825 8.756,15.618 8.626,16.392 L7.8,21.177 L12.1,18.917 C12.796,18.557 13.628,18.557 14.32,18.917 L18.626,21.177 L17.805,16.392 C17.67,15.618 17.929,14.825 18.485,14.279 L21.964,10.884 Z" id="Shape"></path>
                </g>
                <g id="Group" transform="translate(46.000000, 146.000000)" fill="#1C1D21">
                    <path d="M24.707,9.782 C24.988,10.648 24.751,11.587 24.1,12.227 L20.058,16.174 L21.008,21.741 C21.16,22.64 20.795,23.541 20.058,24.082 C19.316,24.614 18.355,24.687 17.545,24.255 L12.537,21.631 L7.54,24.255 C7.186,24.441 6.803,24.536 6.426,24.536 C5.932,24.536 5.443,24.378 5.021,24.082 C4.285,23.541 3.919,22.641 4.077,21.741 L5.026,16.174 L0.984,12.227 C0.327,11.586 0.091,10.648 0.372,9.782 C0.659,8.911 1.395,8.288 2.306,8.152 L7.898,7.342 L10.399,2.278 C10.804,1.452 11.625,0.946 12.535,0.946 C12.541,0.946 12.541,0.946 12.541,0.946 C13.452,0.946 14.272,1.452 14.676,2.278 L17.177,7.342 L22.775,8.152 C23.683,8.288 24.419,8.912 24.707,9.782 Z" id="Shape"></path>
                    <path d="M21.295,10.884 L16.483,10.194 C15.712,10.074 15.039,9.591 14.69,8.888 L12.537,4.526 L10.39,8.888 C10.042,9.591 9.373,10.074 8.592,10.194 L3.786,10.884 L7.265,14.279 C7.833,14.825 8.086,15.618 7.956,16.392 L7.129,21.177 L11.429,18.917 C12.121,18.557 12.958,18.557 13.649,18.917 L17.949,21.177 L17.128,16.392 C16.994,15.618 17.252,14.825 17.814,14.279 L21.295,10.884 Z" id="Shape"></path>
                </g>
                <g id="Group" transform="translate(76.000000, 146.000000)" fill="#1C1D21">
                    <path d="M25.036,9.782 C25.317,10.648 25.081,11.587 24.424,12.227 L20.382,16.174 L21.332,21.741 C21.49,22.64 21.129,23.541 20.382,24.082 C19.647,24.614 18.68,24.687 17.87,24.255 L12.873,21.631 L7.865,24.255 C7.515,24.441 7.134,24.536 6.757,24.536 C6.263,24.536 5.768,24.378 5.353,24.082 C4.616,23.541 4.251,22.641 4.402,21.741 L5.358,16.174 L1.311,12.227 C0.659,11.586 0.423,10.648 0.71,9.782 C0.991,8.912 1.727,8.288 2.632,8.152 L8.232,7.342 L10.732,2.278 C11.138,1.452 11.959,0.946 12.875,0.946 C13.786,0.946 14.611,1.452 15.01,2.278 L17.511,7.342 L23.106,8.152 C24.014,8.288 24.749,8.912 25.036,9.782 Z" id="Shape"></path>
                    <path d="M21.624,10.884 L16.812,10.194 C16.038,10.074 15.368,9.591 15.019,8.888 L12.873,4.526 L10.721,8.888 C10.372,9.591 9.698,10.074 8.921,10.194 L4.116,10.884 L7.595,14.279 C8.158,14.825 8.409,15.618 8.282,16.392 L7.46,21.177 L11.759,18.917 C12.451,18.557 13.288,18.557 13.981,18.917 L18.281,21.177 L17.454,16.392 C17.326,15.618 17.579,14.825 18.141,14.279 L21.624,10.884 Z" id="Shape"></path>
                </g>
                <g id="Group" transform="translate(106.000000, 146.000000)" fill="#1C1D21">
                    <path d="M25.36,9.782 C25.641,10.648 25.412,11.587 24.754,12.227 L20.707,16.174 L21.669,21.741 C21.815,22.64 21.455,23.541 20.711,24.082 C20.296,24.378 19.809,24.536 19.312,24.536 C18.936,24.536 18.548,24.44 18.206,24.255 L13.197,21.631 L8.195,24.255 C7.381,24.688 6.42,24.614 5.683,24.082 C4.94,23.541 4.581,22.641 4.727,21.741 L5.689,16.174 L1.641,12.227 C0.983,11.586 0.752,10.648 1.034,9.782 C1.316,8.912 2.056,8.288 2.963,8.152 L8.556,7.342 L11.057,2.278 C11.462,1.452 12.281,0.946 13.198,0.946 C14.115,0.946 14.936,1.452 15.341,2.278 L17.843,7.342 L23.435,8.152 C24.337,8.288 25.08,8.912 25.36,9.782 Z" id="Shape"></path>
                    <path d="M21.948,10.884 L17.142,10.194 C16.367,10.074 15.692,9.591 15.35,8.888 L13.196,4.526 L11.045,8.888 C10.701,9.591 10.026,10.074 9.251,10.194 L4.445,10.884 L7.925,14.279 C8.481,14.825 8.739,15.618 8.61,16.392 L7.784,21.177 L12.085,18.917 C12.433,18.736 12.821,18.641 13.196,18.641 C13.574,18.641 13.962,18.737 14.308,18.917 L18.61,21.177 L17.79,16.392 C17.655,15.618 17.912,14.825 18.47,14.279 L21.948,10.884 Z" id="Shape"></path>
                </g>
                <g id="Group" transform="translate(137.000000, 146.000000)" fill="#1C1D21">
                    <path d="M24.083,12.228 L20.038,16.175 L20.992,21.742 C21.143,22.641 20.779,23.542 20.042,24.083 C19.626,24.379 19.132,24.537 18.637,24.537 C18.262,24.537 17.878,24.441 17.531,24.256 L12.522,21.632 L7.526,24.256 C6.716,24.689 5.75,24.615 5.006,24.083 C4.271,23.542 3.904,22.642 4.063,21.742 L5.013,16.175 L0.97,12.228 C0.315,11.587 0.077,10.649 0.358,9.783 C0.646,8.913 1.382,8.289 2.293,8.153 L7.886,7.343 L10.387,2.279 C10.792,1.453 11.612,0.947 12.523,0.947 C13.439,0.947 14.26,1.453 14.666,2.279 L17.166,7.343 L22.764,8.153 C23.669,8.289 24.407,8.913 24.687,9.783 C24.972,10.648 24.735,11.587 24.083,12.228 Z" id="Shape"></path>
                    <path d="M21.278,10.884 L16.472,10.194 C15.697,10.074 15.022,9.591 14.673,8.888 L12.521,4.526 L10.374,8.888 C10.025,9.591 9.356,10.074 8.58,10.194 L3.768,10.884 L7.254,14.279 C7.811,14.825 8.068,15.618 7.941,16.392 L7.114,21.177 L11.415,18.917 C12.106,18.557 12.943,18.557 13.641,18.917 L17.934,21.177 L17.114,16.392 C16.986,15.618 17.24,14.825 17.802,14.279 L21.278,10.884 Z" id="Shape"></path>
                </g>
                <path d="M27.814,166.22 L22.614,168.956 C21.934,169.311 21.152,168.738 21.277,167.985 L22.272,162.19 C22.323,161.891 22.227,161.588 22.007,161.375 L17.797,157.271 C17.252,156.738 17.55,155.811 18.309,155.703 L24.127,154.854 C24.425,154.81 24.683,154.625 24.818,154.354 L27.421,149.083 C27.758,148.402 28.736,148.402 29.068,149.083 L31.671,154.354 C31.811,154.625 32.065,154.81 32.368,154.854 L38.186,155.703 C38.939,155.811 39.243,156.738 38.692,157.271 L34.481,161.375 C34.262,161.589 34.166,161.892 34.223,162.19 L35.212,167.985 C35.341,168.738 34.554,169.311 33.879,168.956 L28.674,166.22 C28.403,166.079 28.089,166.079 27.814,166.22 Z" id="Shape" fill="#F05A27"></path>
                <path d="M57.93,166.248 L52.731,168.985 C52.051,169.339 51.269,168.767 51.393,168.013 L52.388,162.218 C52.438,161.92 52.343,161.616 52.124,161.404 L47.914,157.3 C47.369,156.765 47.666,155.838 48.425,155.731 L54.243,154.882 C54.54,154.836 54.799,154.651 54.934,154.382 L57.536,149.11 C57.873,148.43 58.852,148.43 59.183,149.11 L61.785,154.382 C61.927,154.651 62.18,154.836 62.483,154.882 L68.301,155.731 C69.054,155.838 69.358,156.765 68.806,157.3 L64.597,161.404 C64.378,161.617 64.282,161.921 64.338,162.218 L65.328,168.013 C65.457,168.767 64.67,169.339 63.995,168.985 L58.79,166.248 C58.521,166.108 58.206,166.108 57.93,166.248 Z" id="Shape" fill="#F05A27"></path>
                <path d="M88.468,166.108 L83.269,168.845 C82.589,169.198 81.808,168.625 81.931,167.871 L82.926,162.076 C82.976,161.779 82.882,161.475 82.663,161.261 L78.454,157.157 C77.908,156.625 78.207,155.696 78.965,155.59 L84.782,154.742 C85.08,154.696 85.338,154.511 85.474,154.241 L88.077,148.969 C88.413,148.288 89.391,148.288 89.724,148.969 L92.325,154.241 C92.467,154.511 92.72,154.696 93.023,154.742 L98.839,155.59 C99.593,155.696 99.898,156.625 99.345,157.157 L95.135,161.261 C94.915,161.476 94.821,161.78 94.877,162.076 L95.866,167.871 C95.995,168.625 95.208,169.197 94.533,168.845 L89.329,166.108 C89.059,165.967 88.744,165.967 88.468,166.108 Z" id="Shape" fill="#F05A27"></path>
            </g>
        </g>
    </g>
</svg>