<?xml version="1.0" encoding="UTF-8"?>
<svg width="187px" height="177px" viewBox="0 0 187 177" version="1.1" xmlns="http://www.w3.org/2000/svg" xmlns:xlink="http://www.w3.org/1999/xlink">
    <!-- Generator: Sketch 50.2 (55047) - http://www.bohemiancoding.com/sketch -->
    <title>seo-icon</title>
    <desc>Created with Sketch.</desc>
    <defs></defs>
    <g id="Page-1" stroke="none" stroke-width="1" fill="none" fill-rule="evenodd">
        <g id="seo-icon" transform="translate(-2.000000, -7.000000)" fill-rule="nonzero">
            <g id="Layer_5" transform="translate(2.000000, 7.000000)">
                <path d="M176.318,133.707 L10.281,133.707 C6.544,133.707 3.514,130.678 3.514,126.941 L3.514,9.739 C3.514,6.002 6.543,2.972 10.281,2.972 L176.318,2.972 C180.054,2.972 183.084,6.001 183.084,9.739 L183.084,126.941 C183.084,130.678 180.055,133.707 176.318,133.707" id="Shape" fill="#4EA3DA"></path>
                <path d="M176.502,2.973 L10.098,2.973 C6.462,2.973 3.515,6.087 3.515,9.927 L3.515,18.272 C3.515,14.432 6.462,11.318 10.098,11.318 L176.502,11.318 C180.137,11.318 183.084,14.432 183.084,18.272 L183.084,9.927 C183.084,6.087 180.137,2.973 176.502,2.973" id="Shape" fill="#FFFFFF"></path>
                <path d="M176.318,136.488 L10.281,136.488 C5.016,136.488 0.734,132.205 0.734,126.941 L0.734,9.739 C0.734,4.474 5.016,0.191 10.281,0.191 L176.318,0.191 C181.582,0.191 185.865,4.474 185.865,9.739 L185.865,126.941 C185.865,132.205 181.582,136.488 176.318,136.488 Z M10.281,5.755 C8.085,5.755 6.297,7.542 6.297,9.739 L6.297,126.941 C6.297,129.138 8.085,130.925 10.281,130.925 L176.318,130.925 C178.515,130.925 180.302,129.138 180.302,126.941 L180.302,9.739 C180.302,7.542 178.515,5.755 176.318,5.755 L10.281,5.755 Z" id="Shape" fill="#122436"></path>
                <rect id="Rectangle-path" fill="#FFFFFF" x="13.19" y="17.944" width="160.219" height="87.439"></rect>
                <polygon id="Shape" fill="#4EA3DA" points="119.168 44.975 88.199 44.975 100.167 56.942 88.724 68.387 73.942 53.605 22.165 105.384 37.9 105.384 73.942 69.341 88.724 84.121 108.035 64.81 119.168 75.943"></polygon>
                <path d="M176.19,108.165 L10.409,108.165 L10.409,15.163 L176.19,15.163 L176.19,108.165 Z M15.972,102.603 L170.627,102.603 L170.627,20.726 L15.972,20.726 L15.972,102.603 Z" id="Shape" fill="#122436"></path>
                <path d="M123.201,161.522 L63.397,161.522 L64.378,160.12 C70.111,151.931 72.652,142.815 71.741,133.707 L114.855,133.707 C113.944,142.815 116.485,151.931 122.218,160.12 L123.201,161.522 Z" id="Shape" fill="#4EA3DA"></path>
                <path d="M71.613,142.052 L114.985,142.052 C114.624,139.287 114.578,136.497 114.856,133.707 L71.742,133.707 C72.021,136.497 71.975,139.287 71.613,142.052" id="Shape" fill="#FFFFFF"></path>
                <path d="M130.434,174.04 L56.165,174.04 C52.709,174.04 49.907,171.237 49.907,167.781 C49.907,164.325 52.709,161.522 56.165,161.522 L130.434,161.522 C133.89,161.522 136.693,164.325 136.693,167.781 C136.693,171.237 133.89,174.04 130.434,174.04" id="Shape" fill="#4EA3DA"></path>
                <path d="M130.434,161.522 L56.166,161.522 C52.709,161.522 49.907,164.325 49.907,167.781 C49.907,168.78 50.142,169.724 50.559,170.562 C51.582,168.501 53.707,167.085 56.165,167.085 L130.433,167.085 C132.89,167.085 135.015,168.501 136.039,170.562 C136.455,169.724 136.691,168.78 136.691,167.781 C136.692,164.325 133.89,161.522 130.434,161.522" id="Shape" fill="#FFFFFF"></path>
                <path d="M123.201,164.305 L63.397,164.305 C62.36,164.305 61.409,163.727 60.929,162.808 C60.45,161.888 60.523,160.778 61.117,159.928 L62.099,158.526 C67.439,150.897 69.816,142.412 68.973,133.984 C68.895,133.203 69.151,132.424 69.679,131.841 C70.205,131.258 70.954,130.926 71.741,130.926 L114.855,130.926 C115.641,130.926 116.39,131.258 116.918,131.841 C117.446,132.424 117.701,133.202 117.623,133.984 C116.78,142.412 119.158,150.897 124.497,158.526 L125.479,159.928 C126.074,160.778 126.146,161.888 125.667,162.808 C125.189,163.727 124.238,164.305 123.201,164.305 M68.585,158.741 L118.014,158.741 C113.824,151.724 111.74,144.137 111.904,136.488 L74.695,136.488 C74.859,144.137 72.775,151.725 68.585,158.741" id="Shape" fill="#122436"></path>
                <path d="M130.434,176.821 L56.166,176.821 C51.181,176.821 47.126,172.765 47.126,167.781 C47.126,162.797 51.181,158.741 56.166,158.741 L130.434,158.741 C135.418,158.741 139.474,162.797 139.474,167.781 C139.474,172.765 135.418,176.821 130.434,176.821 Z M56.166,164.305 C54.248,164.305 52.688,165.865 52.688,167.782 C52.688,169.699 54.248,171.259 56.166,171.259 L130.434,171.259 C132.351,171.259 133.911,169.699 133.911,167.782 C133.911,165.865 132.351,164.305 130.434,164.305 L56.166,164.305 Z" id="Shape" fill="#122436"></path>
                <path d="M93.3,124.806 C90.483,124.806 88.199,122.523 88.199,119.706 C88.199,116.889 90.482,114.606 93.299,114.606 L93.3,114.606 C96.116,114.606 98.399,116.889 98.399,119.706 C98.399,122.523 96.116,124.806 93.3,124.806" id="Shape" fill="#FFFFFF"></path>
                <path d="M180.268,131.961 L136.635,88.327 C148.173,68.94 145.602,43.49 128.918,26.806 C109.023,6.912 76.66,7.084 56.98,27.322 C38.43,46.397 37.942,76.968 55.913,96.591 C72.535,114.741 99.001,117.861 119.008,105.953 L162.642,149.587 C167.51,154.454 175.401,154.454 180.268,149.587 C185.135,144.72 185.135,136.828 180.268,131.961 M93.422,99.877 C72.688,99.877 55.879,83.069 55.879,62.335 C55.879,41.601 72.688,24.793 93.422,24.793 C114.155,24.793 130.964,41.601 130.964,62.335 C130.964,83.069 114.155,99.877 93.422,99.877" id="Shape" fill="#F05A27"></path>
                <path d="M93.422,105.44 C114.155,105.44 130.964,88.632 130.964,67.898 C130.964,66.962 130.929,66.035 130.861,65.116 C129.437,84.552 113.219,99.877 93.422,99.877 C73.623,99.877 57.406,84.552 55.982,65.116 C55.915,66.035 55.879,66.963 55.879,67.898 C55.879,88.633 72.688,105.44 93.422,105.44" id="Shape" fill="#FFFFFF"></path>
                <path d="M56.98,32.885 C76.661,12.647 109.023,12.476 128.918,32.37 C138.068,41.52 142.973,53.308 143.633,65.286 C144.387,51.455 139.484,37.373 128.918,26.807 C109.023,6.912 76.661,7.084 56.98,27.323 C46.814,37.776 42.074,51.684 42.823,65.349 C43.462,53.538 48.193,41.922 56.98,32.885" id="Shape" fill="#FFFFFF"></path>
                <path d="M171.455,156.019 C167.383,156.019 163.555,154.434 160.675,151.554 L118.539,109.417 C108.606,114.782 97.069,116.868 85.808,115.299 C73.586,113.595 62.241,107.618 53.862,98.47 C44.691,88.455 39.758,75.4 39.971,61.708 C40.184,48.021 45.517,35.121 54.987,25.383 C65.016,15.07 78.455,9.334 92.829,9.234 C107.202,9.123 120.721,14.675 130.886,24.84 C147.634,41.588 151.284,67.21 140.1,87.859 L182.236,129.995 C185.116,132.874 186.702,136.703 186.702,140.774 C186.702,144.846 185.116,148.674 182.236,151.554 C179.355,154.434 175.527,156.019 171.455,156.019 Z M119.445,102.456 L164.609,147.619 C166.437,149.448 168.868,150.455 171.455,150.455 C174.041,150.455 176.473,149.448 178.301,147.619 C180.13,145.791 181.137,143.359 181.137,140.773 C181.137,138.187 180.13,135.756 178.301,133.927 L133.138,88.763 L134.244,86.904 C145.411,68.139 142.413,44.235 126.951,28.773 C117.847,19.669 105.739,14.71 92.867,14.795 C79.994,14.885 67.958,20.023 58.974,29.26 C41.372,47.361 40.929,76.111 57.963,94.711 C73.191,111.337 98.265,115.06 117.585,103.562 L119.445,102.456 Z M93.422,102.659 C71.188,102.659 53.098,84.569 53.098,62.335 C53.098,40.101 71.188,22.012 93.422,22.012 C115.656,22.012 133.745,40.101 133.745,62.335 C133.745,84.569 115.656,102.659 93.422,102.659 Z M93.422,27.574 C74.255,27.574 58.661,43.168 58.661,62.335 C58.661,81.502 74.255,97.096 93.422,97.096 C112.589,97.096 128.183,81.502 128.183,62.335 C128.183,43.168 112.589,27.574 93.422,27.574 Z" id="Shape" fill="#122436"></path>
                <path d="M175.19,142.933 C174.478,142.933 173.766,142.662 173.223,142.118 L128.996,97.891 C127.909,96.805 127.909,95.043 128.996,93.957 C130.082,92.871 131.843,92.871 132.93,93.957 L177.157,138.184 C178.244,139.271 178.244,141.032 177.157,142.118 C176.614,142.661 175.902,142.933 175.19,142.933" id="Shape" fill="#FFFFFF"></path>
            </g>
        </g>
    </g>
</svg>