<?xml version="1.0" encoding="UTF-8"?>
<svg width="185px" height="171px" viewBox="0 0 185 171" version="1.1" xmlns="http://www.w3.org/2000/svg" xmlns:xlink="http://www.w3.org/1999/xlink">
    <!-- Generator: Sketch 50.2 (55047) - http://www.bohemiancoding.com/sketch -->
    <title>smm-icon</title>
    <desc>Created with Sketch.</desc>
    <defs></defs>
    <g id="Page-1" stroke="none" stroke-width="1" fill="none" fill-rule="evenodd">
        <g id="smm-icon" transform="translate(-3.000000, -10.000000)" fill-rule="nonzero">
            <g id="Layer_6" transform="translate(3.000000, 10.000000)">
                <g id="Group">
                    <g>
                        <path d="M92.725,139.406 C62.665,139.406 38.21,114.953 38.21,84.892 C38.21,54.829 62.665,30.374 92.725,30.374 C122.787,30.374 147.243,54.83 147.243,84.892 C147.242,114.953 122.786,139.406 92.725,139.406 Z M92.725,32.209 C63.675,32.209 40.043,55.842 40.043,84.892 C40.043,113.941 63.675,137.573 92.725,137.573 C121.776,137.573 145.408,113.941 145.408,84.892 C145.407,55.843 121.775,32.209 92.725,32.209 Z" id="Shape" fill="#F05A27"></path>
                        <circle id="Oval" fill="#D6D2C6" cx="92.658" cy="83.041" r="36.291"></circle>
                        <g transform="translate(73.000000, 57.000000)" id="Shape">
                            <path d="M30.218,12.707 C30.107,12.707 29.999,12.718 29.894,12.732 L29.894,11.353 C29.894,5.688 25.304,1.096 19.639,1.096 C13.973,1.096 9.381,5.688 9.381,11.353 L9.381,12.735 C9.267,12.718 9.15,12.707 9.03,12.707 C7.727,12.707 6.671,13.764 6.671,15.066 L6.671,18.605 C6.671,19.909 7.728,20.964 9.03,20.964 C9.178,20.964 9.321,20.948 9.459,20.923 C10.074,25.999 14.396,29.931 19.639,29.931 C24.879,29.931 29.199,26 29.814,20.927 C29.948,20.95 30.081,20.964 30.218,20.964 C31.52,20.964 32.575,19.909 32.575,18.605 L32.575,15.066 C32.575,13.763 31.52,12.707 30.218,12.707 Z" fill="#FFFFFF"></path>
                            <path d="M15.167,29 L15.167,34.652 L10.808,34.652 C5.346,34.652 0.916,39.082 0.916,44.545 L0.916,50.398 L38.331,50.398 L38.331,44.545 C38.331,39.082 33.901,34.652 28.439,34.652 L24.082,34.652 L24.082,29 L15.167,29 Z" fill="#FFFFFF"></path>
                            <path d="M19.639,30.848 C14.278,30.848 9.707,27.041 8.68,21.864 C7.038,21.688 5.754,20.294 5.754,18.605 L5.754,15.066 C5.754,13.451 6.927,12.108 8.462,11.837 L8.462,11.352 C8.462,5.19 13.477,0.178 19.639,0.178 C25.799,0.178 30.811,5.191 30.811,11.352 L30.811,11.843 C32.334,12.122 33.495,13.462 33.495,15.066 L33.495,18.605 C33.495,20.283 32.224,21.672 30.597,21.86 C29.568,27.039 24.998,30.848 19.639,30.848 Z M10.252,19.846 L10.367,20.812 C10.937,25.488 14.922,29.013 19.638,29.013 C24.352,29.013 28.335,25.49 28.905,20.816 L29.021,19.855 L29.976,20.023 C30.828,20.18 31.657,19.482 31.657,18.605 L31.657,15.066 C31.659,14.202 30.848,13.526 30.015,13.64 L28.975,13.782 L28.975,11.353 C28.975,6.204 24.787,2.014 19.638,2.014 C14.488,2.014 10.298,6.204 10.298,11.353 L10.298,13.791 L9.251,13.644 C8.431,13.524 7.589,14.196 7.589,15.067 L7.589,18.606 C7.589,19.492 8.462,20.184 9.294,20.021 L10.252,19.846 Z" fill="#0F0F10"></path>
                            <path d="M39.246,51.315 L0,51.315 L0,44.544 C0,38.585 4.849,33.734 10.808,33.734 L14.247,33.734 L14.247,29 L16.083,29 L16.083,35.57 L10.808,35.57 C5.861,35.57 1.833,39.595 1.833,44.545 L1.833,49.479 L37.415,49.479 L37.415,44.545 C37.415,39.596 33.385,35.57 28.438,35.57 L23.164,35.57 L23.164,29 L25,29 L25,33.735 L28.438,33.735 C34.399,33.735 39.246,38.586 39.246,44.545 L39.246,51.315 Z" fill="#0F0F10"></path>
                        </g>
                        <path d="M86.062,72.006 C83.276,72.006 80.162,71.538 76.718,70.376 L77.306,68.639 C93.308,74.04 101.332,63.704 101.667,63.263 L103.138,64.363 C103.064,64.457 97.257,72.006 86.062,72.006 Z" id="Shape" fill="#0F0F10"></path>
                        <path d="M92.658,155.738 C52.573,155.738 19.963,123.126 19.963,83.041 C19.963,42.957 52.573,10.345 92.658,10.345 C132.743,10.345 165.353,42.957 165.353,83.041 C165.354,123.126 132.743,155.738 92.658,155.738 Z M92.658,12.18 C53.583,12.18 21.797,43.968 21.797,83.041 C21.797,122.115 53.583,153.905 92.658,153.905 C131.731,153.905 163.52,122.115 163.52,83.041 C163.521,43.968 131.731,12.18 92.658,12.18 Z" id="Shape" fill="#468ECB"></path>
                        <g transform="translate(31.000000, 14.000000)">
                            <path d="M30.423,27.601 L27.616,27.601 L27.616,24.45 C29.6,23.575 31.033,21.823 31.312,19.744 C31.395,19.758 31.481,19.766 31.57,19.766 C32.409,19.766 33.091,19.143 33.091,18.377 L33.091,16.293 C33.091,15.526 32.41,14.904 31.57,14.904 C31.499,14.904 31.43,14.91 31.362,14.918 L31.362,14.105 C31.362,10.771 28.403,8.066 24.75,8.066 C21.102,8.066 18.142,10.771 18.142,14.105 L18.142,14.921 C18.067,14.909 17.992,14.903 17.917,14.903 C17.076,14.903 16.394,15.526 16.394,16.292 L16.394,18.376 C16.394,19.143 17.076,19.765 17.917,19.765 C18.011,19.765 18.103,19.755 18.192,19.742 C18.469,21.816 19.893,23.564 21.869,24.443 L21.869,27.6 L19.062,27.6 C15.541,27.6 12.687,30.208 12.687,33.424 L12.687,37.768 L36.7970003,37.768 L36.797,33.424 C36.798,30.208 33.945,27.601 30.423,27.601 Z" id="Shape" fill="#FFFFFF"></path>
                            <g transform="translate(1.000000, 1.000000)">
                                <circle id="Oval" fill="#FFFFFF" cx="22.711" cy="22.696" r="22.527"></circle>
                                <path d="M36.717,37.686 L10.77,37.686 L10.77,32.425 C10.77,28.708 14.041,25.684 18.063,25.684 L19.953,25.684 L19.953,24.015 C18.175,23.055 16.913,21.48 16.435,19.64 C15.321,19.427 14.48,18.494 14.48,17.379 L14.48,15.295 C14.48,14.25 15.215,13.366 16.226,13.083 C16.239,9.259 19.61,6.15 23.751,6.15 C27.896,6.15 31.267,9.26 31.278,13.087 C32.279,13.375 33.006,14.255 33.006,15.295 L33.006,17.379 C33.006,18.488 32.175,19.418 31.071,19.636 C30.593,21.485 29.324,23.065 27.534,24.024 L27.534,25.685 L29.424,25.685 C33.445,25.685 36.717,28.709 36.717,32.426 L36.717,37.686 Z M12.605,35.851 L34.88,35.851 L34.88,32.425 C34.88,29.719 32.432,27.518 29.423,27.518 L25.697,27.518 L25.697,22.852 L26.245,22.612 C27.991,21.842 29.17,20.351 29.401,18.623 L29.526,17.68 L30.465,17.841 C30.927,17.841 31.173,17.635 31.173,17.378 L31.173,15.294 C31.173,15.038 30.896,14.822 30.569,14.822 L29.544,14.944 L29.442,13.106 C29.442,10.283 26.891,7.984 23.75,7.984 C20.611,7.984 18.058,10.282 18.058,13.106 L18.058,14.981 L17.011,14.829 C16.551,14.868 16.312,15.039 16.312,15.294 L16.312,17.378 C16.312,17.634 16.589,17.85 16.917,17.85 L17.854,17.689 L18.1,18.623 C18.331,20.345 19.505,21.834 21.243,22.606 L21.787,22.85 L21.787,27.52 L18.062,27.52 C15.052,27.52 12.604,29.721 12.604,32.427 L12.604,35.851 L12.605,35.851 Z" id="Shape" fill="#0F0F10"></path>
                            </g>
                            <path d="M23.711,47.139 C10.784,47.139 0.266,36.622 0.266,23.696 C0.266,10.769 10.784,0.253 23.711,0.253 C36.638,0.253 47.154,10.769 47.154,23.696 C47.155,36.622 36.638,47.139 23.711,47.139 Z M23.711,2.087 C11.796,2.087 2.102,11.78 2.102,23.695 C2.102,35.61 11.796,45.303 23.711,45.303 C35.626,45.303 45.32,35.61 45.32,23.695 C45.32,11.78 35.626,2.087 23.711,2.087 Z" id="Shape" fill="#0F0F10"></path>
                        </g>
                        <circle id="Oval" fill="#F05A27" cx="157.034" cy="59.077" r="27.873"></circle>
                        <path d="M165.338,63.909 L161.865,63.909 L161.865,60.01 C164.321,58.927 166.093,56.76 166.437,54.187 C166.541,54.204 166.647,54.214 166.756,54.214 C167.795,54.214 168.639,53.444 168.639,52.494 L168.639,49.916 C168.639,48.966 167.795,48.197 166.756,48.197 C166.668,48.197 166.582,48.204 166.498,48.214 L166.498,47.21 C166.498,43.084 162.839,39.737 158.32,39.737 C153.803,39.737 150.141,43.083 150.141,47.21 L150.141,48.218 C150.051,48.204 149.956,48.197 149.865,48.197 C148.826,48.197 147.983,48.967 147.983,49.916 L147.983,52.494 C147.983,53.444 148.826,54.214 149.865,54.214 C149.98,54.214 150.094,54.203 150.204,54.183 C150.546,56.751 152.312,58.915 154.757,60.001 L154.757,63.908 L151.281,63.908 C146.925,63.908 143.393,67.134 143.393,71.113 L143.393,76.487 L173.225001,76.487 L173.225,71.113 C173.227,67.134 169.694,63.909 165.338,63.909 Z" id="Shape" fill="#FFFFFF"></path>
                        <path d="M73.896,149.313 C73.896,161.124 64.323,170.696 52.514,170.696 C40.707,170.696 31.133,161.124 31.133,149.313 C31.133,137.507 40.707,127.933 52.514,127.933 C64.323,127.933 73.896,137.507 73.896,149.313 Z" id="Shape" fill="#468ECB"></path>
                        <path d="M58.887,153.02 L56.22,153.02 L56.22,150.03 C58.104,149.202 59.464,147.54 59.728,145.566 C59.807,145.577 59.888,145.586 59.974,145.586 C60.769,145.586 61.415,144.996 61.415,144.265 L61.415,142.286 C61.415,141.559 60.769,140.97 59.974,140.97 C59.907,140.97 59.842,140.977 59.776,140.985 L59.776,140.213 C59.776,137.051 56.967,134.482 53.503,134.482 C50.038,134.482 47.23,137.051 47.23,140.213 L47.23,140.986 C47.159,140.977 47.087,140.97 47.015,140.97 C46.218,140.97 45.572,141.56 45.572,142.286 L45.572,144.265 C45.572,144.996 46.218,145.586 47.015,145.586 C47.103,145.586 47.192,145.577 47.277,145.563 C47.538,147.533 48.894,149.191 50.767,150.024 L50.767,153.021 L48.102,153.021 C44.762,153.021 42.052,155.5 42.052,158.551 L42.052,162.672 L64.937,162.672 L64.937,158.551 C64.937,155.498 62.228,153.02 58.887,153.02 Z" id="Shape" fill="#FFFFFF"></path>
                        <circle id="Oval" fill="#468ECB" cx="150.256" cy="132.514" r="12.218"></circle>
                        <path d="M153.896,134.633 L152.374,134.633 L152.374,132.925 C153.45,132.448 154.228,131.498 154.379,130.37 C154.424,130.381 154.47,130.382 154.52,130.382 C154.974,130.382 155.344,130.048 155.344,129.628 L155.344,128.5 C155.344,128.083 154.974,127.746 154.52,127.746 C154.482,127.746 154.443,127.75 154.406,127.754 L154.406,127.314 C154.406,125.506 152.802,124.039 150.822,124.039 C148.842,124.039 147.237,125.507 147.237,127.314 L147.237,127.755 C147.196,127.75 147.157,127.746 147.116,127.746 C146.66,127.746 146.289,128.083 146.289,128.5 L146.289,129.628 C146.289,130.048 146.66,130.382 147.116,130.382 C147.166,130.382 147.217,130.378 147.264,130.37 C147.413,131.496 148.185,132.444 149.26,132.921 L149.26,134.633 L147.736,134.633 C145.827,134.633 144.28,136.048 144.28,137.79 L144.28,140.147 L157.357,140.147 L157.357,137.79 C157.355,136.048 155.806,134.633 153.896,134.633 Z" id="Shape" fill="#FFFFFF"></path>
                        <circle id="Oval" fill="#E4E5ED" cx="107.494" cy="156.949" r="9.164"></circle>
                        <path d="M107.494,167.032 C101.935,167.032 97.414,162.51 97.414,156.949 C97.414,151.39 101.935,146.869 107.494,146.869 C113.052,146.869 117.573,151.39 117.573,156.949 C117.573,162.51 113.052,167.032 107.494,167.032 Z M107.494,148.705 C102.947,148.705 99.249,152.402 99.249,156.949 C99.249,161.498 102.947,165.195 107.494,165.195 C112.04,165.195 115.739,161.498 115.739,156.949 C115.739,152.402 112.04,148.705 107.494,148.705 Z" id="Shape" fill="#0F0F10"></path>
                        <path d="M110.225,158.538 L109.084,158.538 L109.084,157.256 C109.89,156.901 110.473,156.191 110.584,155.342 C110.62,155.35 110.653,155.351 110.69,155.351 C111.032,155.351 111.309,155.098 111.309,154.786 L111.309,153.94 C111.309,153.627 111.032,153.374 110.69,153.374 C110.661,153.374 110.634,153.378 110.607,153.381 L110.607,153.051 C110.607,151.693 109.402,150.593 107.917,150.593 C106.431,150.593 105.229,151.693 105.229,153.051 L105.229,153.381 C105.197,153.378 105.166,153.374 105.138,153.374 C104.795,153.374 104.519,153.628 104.519,153.94 L104.519,154.786 C104.519,155.099 104.795,155.351 105.138,155.351 C105.176,155.351 105.213,155.347 105.249,155.342 C105.36,156.187 105.941,156.9 106.745,157.252 L106.745,158.538 L105.603,158.538 C104.168,158.538 103.009,159.601 103.009,160.909 L103.009,162.675 L112.817001,162.675 L112.817,160.909 C112.818,159.601 111.658,158.538 110.225,158.538 Z" id="Shape" fill="#FFFFFF"></path>
                        <circle id="Oval" fill="#468ECB" cx="21.97" cy="105.407" r="9.163"></circle>
                        <path d="M21.97,115.488 C16.411,115.488 11.889,110.966 11.889,105.407 C11.889,99.848 16.411,95.326 21.97,95.326 C27.53,95.326 32.052,99.848 32.052,105.407 C32.052,110.966 27.53,115.488 21.97,115.488 Z M21.97,97.161 C17.423,97.161 13.724,100.86 13.724,105.407 C13.724,109.954 17.423,113.652 21.97,113.652 C26.517,113.652 30.215,109.954 30.215,105.407 C30.215,100.86 26.517,97.161 21.97,97.161 Z" id="Shape" fill="#0F0F10"></path>
                        <path d="M24.701,106.994 L23.558,106.994 L23.558,105.713 C24.366,105.359 24.949,104.646 25.063,103.8 C25.097,103.804 25.132,103.808 25.167,103.808 C25.509,103.808 25.787,103.556 25.787,103.243 L25.787,102.396 C25.787,102.084 25.51,101.831 25.167,101.831 C25.14,101.831 25.109,101.835 25.083,101.839 L25.083,101.508 C25.083,100.15 23.88,99.049 22.395,99.049 C20.91,99.049 19.707,100.15 19.707,101.508 L19.707,101.839 C19.676,101.835 19.645,101.831 19.615,101.831 C19.272,101.831 18.997,102.085 18.997,102.396 L18.997,103.243 C18.997,103.556 19.272,103.808 19.615,103.808 C19.653,103.808 19.692,103.804 19.726,103.798 C19.84,104.644 20.419,105.354 21.223,105.709 L21.223,106.994 L20.08,106.994 C18.648,106.994 17.488,108.057 17.488,109.365 L17.488,111.132 L27.296,111.132 L27.296,109.365 C27.295,108.058 26.132,106.994 24.701,106.994 Z" id="Shape" fill="#FFFFFF"></path>
                        <circle id="Oval" fill="#468ECB" cx="12.885" cy="68.031" r="12.218"></circle>
                        <path d="M16.526,70.149 L15.002,70.149 L15.002,68.44 C16.079,67.967 16.857,67.016 17.007,65.889 C17.053,65.896 17.1,65.901 17.148,65.901 C17.605,65.901 17.974,65.563 17.974,65.147 L17.974,64.017 C17.974,63.601 17.605,63.264 17.148,63.264 C17.11,63.264 17.073,63.267 17.034,63.273 L17.034,62.83 C17.034,61.02 15.43,59.554 13.45,59.554 C11.47,59.554 9.865,61.02 9.865,62.83 L9.865,63.271 C9.827,63.265 9.784,63.262 9.744,63.262 C9.287,63.262 8.918,63.599 8.918,64.015 L8.918,65.145 C8.918,65.561 9.287,65.899 9.744,65.899 C9.796,65.899 9.846,65.894 9.892,65.885 C10.041,67.01 10.815,67.959 11.889,68.434 L11.889,70.147 L10.365,70.147 C8.456,70.147 6.907,71.563 6.907,73.307 L6.907,75.661 L19.982,75.661 L19.982,73.307 C19.982,71.564 18.436,70.149 16.526,70.149 Z" id="Shape" fill="#FFFFFF"></path>
                        <circle id="Oval" fill="#F05A27" cx="114.507" cy="12.288" r="12.217"></circle>
                        <path d="M118.146,14.405 L116.624,14.405 L116.624,12.697 C117.7,12.223 118.478,11.273 118.628,10.145 C118.676,10.153 118.72,10.157 118.77,10.157 C119.224,10.157 119.594,9.82 119.594,9.403 L119.594,8.272 C119.594,7.857 119.224,7.519 118.77,7.519 C118.732,7.519 118.693,7.523 118.658,7.527 L118.658,7.086 C118.658,5.277 117.052,3.81 115.072,3.81 C113.094,3.81 111.487,5.278 111.487,7.086 L111.487,7.529 C111.448,7.523 111.407,7.519 111.364,7.519 C110.908,7.519 110.541,7.857 110.541,8.272 L110.541,9.403 C110.541,9.82 110.908,10.157 111.364,10.157 C111.417,10.157 111.467,10.152 111.514,10.143 C111.664,11.268 112.438,12.216 113.51,12.693 L113.51,14.405 L111.986,14.405 C110.077,14.405 108.53,15.821 108.53,17.566 L108.53,19.92 L121.607,19.92 L121.607,17.566 C121.606,15.821 120.056,14.405 118.146,14.405 Z" id="Shape" fill="#FFFFFF"></path>
                        <circle id="Oval" fill="#468ECB" cx="83.728" cy="10.587" r="5.727"></circle>
                        <circle id="Oval" fill="#F05A27" cx="40.583" cy="89.621" r="5.727"></circle>
                        <path d="M146.727,102.982 C146.727,106.36 143.99,109.092 140.617,109.092 C137.243,109.092 134.508,106.36 134.508,102.982 C134.508,99.609 137.243,96.875 140.617,96.875 C143.989,96.875 146.727,99.609 146.727,102.982 Z" id="Shape" fill="#E4E5ED"></path>
                    </g>
                    <g transform="translate(111.000000, 107.000000)" fill="#0F0F10" id="Rectangle-path">
                        <rect x="0.707" y="8.518" width="17.714" height="1.834"></rect>
                        <rect x="8.647" y="0.576" width="1.833" height="17.715"></rect>
                    </g>
                    <g transform="translate(10.000000, 29.000000)" fill="#0F0F10" id="Rectangle-path">
                        <rect x="0.912" y="8.628" width="17.715" height="1.835"></rect>
                        <rect x="8.851" y="0.689" width="1.835" height="17.713"></rect>
                    </g>
                    <path d="M69.996,121.242 C67.385,121.242 65.261,119.117 65.261,116.509 C65.261,113.898 67.385,111.773 69.996,111.773 C72.606,111.773 74.732,113.898 74.732,116.509 C74.732,119.117 72.606,121.242 69.996,121.242 Z M69.996,113.606 C68.397,113.606 67.096,114.907 67.096,116.508 C67.096,118.107 68.397,119.407 69.996,119.407 C71.594,119.407 72.895,118.106 72.895,116.508 C72.896,114.907 71.594,113.606 69.996,113.606 Z" id="Shape" fill="#0F0F10"></path>
                    <path d="M140.629,20.447 C137.81,20.447 135.513,18.151 135.513,15.33 C135.513,12.508 137.81,10.212 140.629,10.212 C143.45,10.212 145.749,12.507 145.749,15.33 C145.749,18.151 143.45,20.447 140.629,20.447 Z M140.629,12.047 C138.821,12.047 137.347,13.52 137.347,15.33 C137.347,17.14 138.822,18.613 140.629,18.613 C142.44,18.613 143.912,17.14 143.912,15.33 C143.912,13.52 142.439,12.047 140.629,12.047 Z" id="Shape" fill="#0F0F10"></path>
                    <rect id="Rectangle-path" fill="#0F0F10" x="105.123" y="35.412" width="16.8" height="1.835"></rect>
                    <rect id="Rectangle-path" fill="#0F0F10" x="21.125" y="128.57" width="14.509" height="1.835"></rect>
                    <rect id="Rectangle-path" fill="#0F0F10" x="157.047" y="91.155" width="19.09" height="1.835"></rect>
                </g>
            </g>
        </g>
    </g>
</svg>