<?xml version="1.0" encoding="UTF-8"?>
<svg width="160px" height="190px" viewBox="0 0 160 190" version="1.1" xmlns="http://www.w3.org/2000/svg" xmlns:xlink="http://www.w3.org/1999/xlink">
    <!-- Generator: Sketch 50.2 (55047) - http://www.bohemiancoding.com/sketch -->
    <title>storytelling-icon</title>
    <desc>Created with Sketch.</desc>
    <defs></defs>
    <g id="Page-1" stroke="none" stroke-width="1" fill="none" fill-rule="evenodd">
        <g id="storytelling-icon">
            <path d="M8.872,134.546 L8.872,82.149 L8.872,65.833 L8.872,60.909 C8.872,59.097 10.342,57.631 12.155,57.631 L147.703,57.631 C149.516,57.631 150.986,59.097 150.986,60.909 L150.986,132.204" id="Shape" fill="#AAB1BA" fill-rule="nonzero"></path>
            <path d="M79.927,57.495 C70.706,50.623 59.517,46.906 48.017,46.906 L17.671,46.906 L17.671,124.898 L48.016,124.898 C59.516,124.898 70.705,128.609 79.926,135.488 C89.146,128.609 100.338,124.898 111.838,124.898 L142.181,124.898 L142.181,46.906 L111.838,46.906 C100.339,46.906 89.146,50.623 79.927,57.495 Z" id="Shape" fill="#ECF4F7" fill-rule="nonzero"></path>
            <polyline id="Shape" fill="#4EA3DA" fill-rule="nonzero" points="132.214 46.906 132.214 72.062 124.713 65.525 117.213 72.062 117.213 46.906"></polyline>
            <path d="M103.012,96.425 C103.012,109.174 92.674,119.512 79.927,119.512 C67.178,119.512 56.844,109.174 56.844,96.425 C56.844,83.677 67.179,73.344 79.927,73.344 C92.674,73.344 103.012,83.677 103.012,96.425 Z" id="Shape" fill="#F05A26" fill-rule="nonzero"></path>
            <path d="M132.214,7.372 L132.214,25.171 C132.214,27.753 130.121,29.844 127.539,29.844 L102.955,29.844 C101.712,29.844 100.526,30.334 99.648,31.212 L90.513,40.353 L90.513,29.844 L90.513,7.372 C90.513,4.79 92.605,2.699 95.18,2.699 L127.538,2.699 C130.121,2.699 132.214,4.791 132.214,7.372 Z" id="Shape" fill="#ECF4F7" fill-rule="nonzero"></path>
            <path d="M27.641,7.372 L27.641,25.171 C27.641,27.753 29.73,29.844 32.309,29.844 L56.9,29.844 C58.14,29.844 59.325,30.334 60.203,31.212 L69.341,40.353 L69.341,29.844 L69.341,7.372 C69.341,4.79 67.25,2.699 64.672,2.699 L32.309,2.699 C29.73,2.699 27.641,4.791 27.641,7.372 Z" id="Shape" fill="#ECF4F7" fill-rule="nonzero"></path>
            <path d="M109.811,187.588 L109.811,141.835 C109.811,139.242 111.914,137.145 114.5,137.145 L124.11,137.145 C127.768,137.145 131.278,135.687 133.866,133.098 L154.953,112.013 C156.537,110.434 157.42,108.296 157.42,106.062 C157.42,101.533 152.018,99.173 148.694,102.255 L136.76,113.329 C132.315,117.306 126.56,119.512 120.599,119.512 L80.036,119.512 L79.927,119.512 L79.817,119.512 L39.259,119.512 C33.291,119.512 27.533,117.306 23.091,113.329 L11.16,102.255 C7.838,99.173 2.435,101.532 2.435,106.062 C2.435,108.296 3.321,110.434 4.897,112.013 L25.985,133.098 C28.573,135.687 32.084,137.145 35.745,137.145 L45.355,137.145 C47.945,137.145 50.044,139.243 50.044,141.835 L50.044,187.588" id="Shape" fill="#F05A26" fill-rule="nonzero"></path>
            <path d="M6.986,76.165 L6.986,73.344 C6.986,72.302 7.832,71.459 8.872,71.459 C9.915,71.459 10.759,72.302 10.759,73.344 L10.759,76.165 C10.759,77.209 9.915,78.052 8.872,78.052 C7.832,78.051 6.986,77.208 6.986,76.165 Z M88.627,40.353 L88.627,7.372 C88.627,3.753 91.568,0.812 95.181,0.812 L127.539,0.812 C131.158,0.812 134.099,3.752 134.099,7.372 L134.099,25.171 C134.099,28.79 131.159,31.731 127.539,31.731 L102.955,31.731 C102.214,31.731 101.507,32.022 100.981,32.545 L91.847,41.686 C91.488,42.045 91.002,42.24 90.513,42.24 C90.267,42.24 90.023,42.188 89.788,42.092 C89.083,41.801 88.627,41.111 88.627,40.353 Z M92.399,35.793 L98.315,29.877 C99.557,28.642 101.199,27.957 102.955,27.957 L127.539,27.957 C129.079,27.957 130.327,26.709 130.327,25.171 L130.327,7.372 C130.327,5.833 129.079,4.585 127.539,4.585 L95.181,4.585 C93.648,4.585 92.4,5.834 92.4,7.372 L92.4,35.793 L92.399,35.793 Z M119.334,18.97 L120.381,18.97 C121.426,18.97 122.275,18.12 122.275,17.077 C122.275,16.04 121.426,15.191 120.381,15.191 L119.334,15.191 C118.297,15.191 117.452,16.04 117.452,17.077 C117.452,18.121 118.297,18.97 119.334,18.97 Z M110.841,18.97 L111.885,18.97 C112.928,18.97 113.772,18.12 113.772,17.077 C113.772,16.04 112.928,15.191 111.885,15.191 L110.841,15.191 C109.799,15.191 108.949,16.04 108.949,17.077 C108.949,18.121 109.799,18.97 110.841,18.97 Z M102.338,18.97 L103.388,18.97 C104.432,18.97 105.275,18.12 105.275,17.077 C105.275,16.04 104.432,15.191 103.388,15.191 L102.338,15.191 C101.301,15.191 100.458,16.04 100.458,17.077 C100.458,18.121 101.301,18.97 102.338,18.97 Z M25.754,25.171 L25.754,7.372 C25.754,3.753 28.696,0.812 32.309,0.812 L64.671,0.812 C68.287,0.812 71.227,3.752 71.227,7.372 L71.227,40.353 C71.227,41.111 70.769,41.801 70.062,42.092 C69.829,42.188 69.583,42.24 69.34,42.24 C68.851,42.24 68.366,42.045 68.007,41.686 L58.866,32.545 C58.342,32.022 57.644,31.731 56.899,31.731 L32.309,31.731 C28.697,31.73 25.754,28.79 25.754,25.171 Z M29.528,25.171 C29.528,26.709 30.777,27.957 32.309,27.957 L56.9,27.957 C58.654,27.957 60.298,28.642 61.536,29.877 L67.456,35.793 L67.456,7.372 C67.456,5.833 66.207,4.585 64.671,4.585 L32.309,4.585 C30.776,4.585 29.528,5.834 29.528,7.372 L29.528,25.171 Z M39.47,18.97 L40.516,18.97 C41.558,18.97 42.403,18.12 42.403,17.077 C42.403,16.04 41.558,15.191 40.516,15.191 L39.47,15.191 C38.429,15.191 37.583,16.04 37.583,17.077 C37.583,18.121 38.43,18.97 39.47,18.97 Z M47.967,18.97 L49.014,18.97 C50.056,18.97 50.899,18.12 50.899,17.077 C50.899,16.04 50.056,15.191 49.014,15.191 L47.967,15.191 C46.928,15.191 46.082,16.04 46.082,17.077 C46.082,18.121 46.928,18.97 47.967,18.97 Z M56.464,18.97 L57.509,18.97 C58.553,18.97 59.396,18.12 59.396,17.077 C59.396,16.04 58.553,15.191 57.509,15.191 L56.464,15.191 C55.423,15.191 54.577,16.04 54.577,17.077 C54.578,18.121 55.424,18.97 56.464,18.97 Z M156.291,113.346 L152.867,116.771 L152.867,132.205 C152.867,133.249 152.024,134.092 150.986,134.092 C149.937,134.092 149.093,133.249 149.093,132.205 L149.093,120.545 L135.198,134.434 C132.234,137.397 128.297,139.033 124.109,139.033 L114.499,139.033 C112.95,139.033 111.696,140.288 111.696,141.837 L111.696,187.59 C111.696,188.632 110.851,189.477 109.809,189.477 C108.767,189.477 107.922,188.632 107.922,187.59 L107.922,141.837 C107.922,138.207 110.874,135.261 114.498,135.261 L124.108,135.261 C127.288,135.261 130.285,134.018 132.531,131.767 L153.616,110.68 C154.852,109.451 155.531,107.81 155.531,106.064 C155.531,104.708 154.791,103.581 153.548,103.034 C152.307,102.492 150.967,102.72 149.976,103.642 L138.047,114.71 C133.226,119.03 127.037,121.4 120.598,121.4 L39.258,121.4 C32.815,121.4 26.626,119.03 21.83,114.732 L9.877,103.64 C8.883,102.717 7.549,102.49 6.304,103.032 C5.061,103.579 4.321,104.706 4.321,106.062 C4.321,107.808 4.999,109.449 6.23,110.678 L27.32,131.765 C29.571,134.016 32.563,135.259 35.745,135.259 L45.355,135.259 C48.979,135.259 51.931,138.205 51.931,141.835 L51.931,187.588 C51.931,188.63 51.085,189.475 50.044,189.475 C49.002,189.475 48.157,188.63 48.157,187.588 L48.157,141.835 C48.157,140.286 46.899,139.031 45.354,139.031 L35.744,139.031 C31.553,139.031 27.612,137.395 24.649,134.432 L10.757,120.543 L10.757,134.545 C10.757,135.582 9.913,136.432 8.87,136.432 C7.83,136.432 6.984,135.582 6.984,134.545 L6.984,116.77 L3.561,113.345 C1.615,111.403 0.546,108.814 0.546,106.061 C0.546,103.207 2.173,100.717 4.795,99.577 C5.507,99.263 6.245,99.075 6.983,99.007 L6.983,82.149 C6.983,81.107 7.829,80.257 8.869,80.257 C9.912,80.257 10.756,81.107 10.756,82.149 L10.756,99.701 C11.357,100.004 11.924,100.398 12.44,100.877 L15.782,103.978 L15.782,59.518 L12.152,59.518 C11.382,59.518 10.756,60.14 10.756,60.909 L10.756,65.833 C10.756,66.875 9.912,67.72 8.869,67.72 C7.829,67.72 6.983,66.876 6.983,65.833 L6.983,60.909 C6.983,58.06 9.302,55.746 12.152,55.746 L15.782,55.746 L15.782,46.906 C15.782,45.869 16.629,45.021 17.669,45.021 L48.014,45.021 C59.374,45.021 70.65,48.617 79.924,55.165 C89.199,48.617 100.479,45.021 111.836,45.021 L142.179,45.021 C143.221,45.021 144.066,45.869 144.066,46.906 L144.066,55.746 L147.701,55.746 C150.551,55.746 152.865,58.06 152.865,60.909 L152.865,99.007 C153.606,99.075 154.341,99.263 155.053,99.577 C157.674,100.718 159.305,103.208 159.305,106.061 C159.307,108.814 158.234,111.403 156.291,113.346 Z M119.1,67.913 L123.472,64.101 C124.184,63.479 125.244,63.479 125.955,64.101 L130.327,67.913 L130.327,48.799 L119.1,48.799 L119.1,67.913 Z M140.295,107.477 L140.295,48.799 L134.099,48.799 L134.099,72.062 C134.099,72.803 133.667,73.475 132.994,73.782 C132.745,73.897 132.475,73.949 132.215,73.949 C131.77,73.949 131.325,73.789 130.972,73.487 L124.714,68.028 L118.457,73.487 C117.898,73.973 117.105,74.086 116.435,73.783 C115.761,73.476 115.33,72.804 115.33,72.063 L115.33,48.799 L111.841,48.799 C101.134,48.799 90.51,52.228 81.816,58.468 L81.816,66.215 C81.816,67.257 80.969,68.1 79.929,68.1 C78.887,68.1 78.044,67.257 78.044,66.215 L78.044,58.468 C69.343,52.228 58.726,48.799 48.019,48.799 L19.557,48.799 L19.557,107.476 L24.373,111.943 C28.454,115.596 33.748,117.625 39.259,117.625 L66.751,117.625 C59.676,113.21 54.957,105.362 54.957,96.425 C54.957,82.656 66.16,71.459 79.927,71.459 C93.699,71.459 104.899,82.657 104.899,96.425 C104.899,105.363 100.179,113.21 93.106,117.625 L120.6,117.625 C126.105,117.625 131.405,115.597 135.507,111.922 L140.295,107.477 Z M101.125,96.425 C101.125,84.737 91.613,75.231 79.927,75.231 C68.239,75.231 58.73,84.738 58.73,96.425 C58.73,108.115 68.239,117.625 79.927,117.625 C91.613,117.625 101.125,108.115 101.125,96.425 Z M147.407,100.877 C147.927,100.398 148.49,100.004 149.094,99.701 L149.094,60.909 C149.094,60.139 148.467,59.518 147.703,59.518 L144.068,59.518 L144.068,103.977 L147.407,100.877 Z" id="Shape" fill="#1C1D21" fill-rule="nonzero"></path>
            <g id="Group" transform="translate(73.000000, 151.000000)" fill-rule="nonzero">
                <path d="M11.245,6.043 L4.817,0.725 C3.953,0.015 2.788,-0.135 1.773,0.342 C0.763,0.82 0.131,1.812 0.131,2.931 L0.131,13.562 C0.131,14.681 0.763,15.674 1.773,16.156 C2.169,16.338 2.587,16.429 3.002,16.429 C3.648,16.429 4.289,16.206 4.817,15.77 L11.245,10.452 C11.904,9.906 12.282,9.105 12.282,8.25 C12.282,7.393 11.904,6.588 11.245,6.043 Z" id="Shape" fill="#1C1D21"></path>
                <polygon id="Shape" fill="#FFFFFF" points="3.143 13.244 3.143 3.253 9.184 8.249"></polygon>
            </g>
            <circle id="Oval" stroke="#1C1D21" stroke-width="3" cx="77.875" cy="159.126" r="14.125"></circle>
        </g>
    </g>
</svg>