<?xml version="1.0" encoding="UTF-8"?>
<svg width="175px" height="182px" viewBox="0 0 175 182" version="1.1" xmlns="http://www.w3.org/2000/svg" xmlns:xlink="http://www.w3.org/1999/xlink">
    <!-- Generator: Sketch 50.2 (55047) - http://www.bohemiancoding.com/sketch -->
    <title>VRAR-icon</title>
    <desc>Created with Sketch.</desc>
    <defs></defs>
    <g id="Page-1" stroke="none" stroke-width="1" fill="none" fill-rule="evenodd">
        <g id="VRAR-icon" transform="translate(-8.000000, -5.000000)" fill-rule="nonzero">
            <g id="Layer_8" transform="translate(8.000000, 5.000000)">
                <path d="M78.581,113.897 C78.176,113.897 77.848,113.569 77.848,113.166 L77.848,107.303 C77.848,106.898 77.519,106.57 77.116,106.57 L71.253,106.57 C70.848,106.57 70.52,106.241 70.52,105.838 C70.52,105.434 70.848,105.105 71.253,105.105 L77.116,105.105 C78.328,105.105 79.315,106.091 79.315,107.304 L79.315,113.167 C79.313,113.569 78.986,113.897 78.581,113.897" id="Shape" fill="#263238"></path>
                <path d="M3.825,104.37 L3.825,122.693 C3.825,126.741 7.106,130.022 11.154,130.022 L31.278,130.022 C34.549,130.022 37.424,127.852 38.325,124.707 L38.976,122.418 C39.427,120.846 40.866,119.761 42.5,119.761 L44.302,119.761 C45.939,119.761 47.376,120.846 47.825,122.418 L48.479,124.707 C49.378,127.853 52.253,130.022 55.526,130.022 L75.65,130.022 C79.697,130.022 82.979,126.741 82.979,122.693 L82.979,104.37" id="Shape" fill="#468ECB"></path>
                <path d="M75.649,130.754 L55.525,130.754 C51.945,130.754 48.757,128.352 47.774,124.908 L47.12,122.621 C46.762,121.368 45.602,120.494 44.301,120.494 L42.5,120.494 C41.199,120.494 40.04,121.368 39.682,122.62 L39.031,124.908 C38.046,128.351 34.858,130.754 31.278,130.754 L11.153,130.754 C6.707,130.754 3.091,127.139 3.091,122.693 L3.091,104.37 C3.091,103.967 3.42,103.638 3.824,103.638 C4.228,103.638 4.556,103.967 4.556,104.37 L4.556,122.693 C4.556,126.328 7.516,129.289 11.152,129.289 L31.276,129.289 C34.205,129.289 36.813,127.322 37.617,124.505 L38.27,122.218 C38.808,120.34 40.546,119.03 42.499,119.03 L44.301,119.03 C46.254,119.03 47.993,120.341 48.529,122.218 L49.183,124.505 C49.989,127.322 52.598,129.289 55.526,129.289 L75.65,129.289 C79.287,129.289 82.246,126.328 82.246,122.693 L82.246,104.37 C82.246,103.967 82.574,103.638 82.979,103.638 C83.384,103.638 83.711,103.967 83.711,104.37 L83.711,122.693 C83.71,127.139 80.094,130.754 75.649,130.754" id="Shape" fill="#263238"></path>
                <path d="M47.066,105.104 L39.736,105.104 C39.542,105.104 39.356,105.026 39.218,104.889 L36.502,102.171 L4.556,102.171 C2.134,102.171 0.16,100.199 0.16,97.775 C0.16,95.351 2.134,93.378 4.556,93.378 L82.245,93.378 C84.67,93.378 86.642,95.351 86.642,97.775 C86.642,100.199 84.67,102.171 82.245,102.171 L50.301,102.171 L47.584,104.889 C47.447,105.025 47.261,105.104 47.066,105.104 Z M40.04,103.638 L46.762,103.638 L49.479,100.92 C49.616,100.783 49.802,100.706 49.997,100.706 L82.245,100.706 C83.863,100.706 85.177,99.393 85.177,97.774 C85.177,96.157 83.863,94.842 82.245,94.842 L4.556,94.842 C2.941,94.842 1.625,96.156 1.625,97.774 C1.625,99.392 2.94,100.706 4.556,100.706 L36.805,100.706 C37,100.706 37.186,100.783 37.324,100.92 L40.04,103.638 Z" id="Shape" fill="#263238"></path>
                <path d="M70.055,115.152 L63.071,111.661 C62.096,111.174 60.95,111.882 60.95,112.974 L60.95,119.953 C60.95,121.044 62.096,121.753 63.071,121.266 L70.055,117.775 C71.134,117.233 71.134,115.693 70.055,115.152" id="Shape" fill="#F05A27"></path>
                <path d="M62.414,122.156 C62.014,122.156 61.616,122.044 61.259,121.825 C60.607,121.422 60.217,120.722 60.217,119.954 L60.217,112.971 C60.217,112.205 60.607,111.505 61.259,111.102 C61.914,110.701 62.711,110.663 63.399,111.007 L70.383,114.496 C71.131,114.872 71.598,115.625 71.598,116.463 C71.598,117.303 71.131,118.055 70.383,118.431 L63.399,121.921 C63.085,122.078 62.749,122.156 62.414,122.156 M62.417,112.238 C62.238,112.238 62.098,112.305 62.03,112.349 C61.926,112.412 61.682,112.603 61.682,112.97 L61.682,119.953 C61.682,120.323 61.926,120.512 62.03,120.576 C62.134,120.642 62.412,120.777 62.743,120.607 L69.727,117.118 C69.98,116.992 70.132,116.746 70.132,116.462 C70.132,116.179 69.981,115.933 69.727,115.807 L62.743,112.316 C62.625,112.258 62.515,112.238 62.417,112.238" id="Shape" fill="#263238"></path>
                <path d="M21.415,115.364 L2.359,115.364 C1.147,115.364 0.16,114.378 0.16,113.166 L0.16,108.768 C0.16,107.556 1.146,106.57 2.359,106.57 L21.415,106.57 C22.627,106.57 23.613,107.556 23.613,108.768 L23.613,113.166 C23.613,114.378 22.626,115.364 21.415,115.364 Z M2.359,108.034 C1.955,108.034 1.626,108.364 1.626,108.767 L1.626,113.165 C1.626,113.568 1.955,113.896 2.359,113.896 L21.415,113.896 C21.818,113.896 22.148,113.568 22.148,113.165 L22.148,108.767 C22.148,108.364 21.818,108.034 21.415,108.034 L2.359,108.034 Z" id="Shape" fill="#263238"></path>
                <polyline id="Shape" fill="#F05A27" points="11.887 91.178 23.613 78.719 19.948 78.719 5.291 91.178"></polyline>
                <path d="M5.291,91.911 C5.082,91.911 4.877,91.823 4.732,91.653 C4.469,91.343 4.507,90.882 4.815,90.62 L19.473,78.16 C19.607,78.047 19.773,77.985 19.948,77.985 L23.613,77.985 C23.907,77.985 24.17,78.16 24.286,78.427 C24.402,78.697 24.348,79.008 24.147,79.221 L12.42,91.681 C12.143,91.976 11.677,91.99 11.384,91.712 C11.089,91.435 11.076,90.969 11.354,90.675 L21.917,79.451 L20.218,79.451 L5.766,91.736 C5.628,91.854 5.459,91.911 5.291,91.911" id="Shape" fill="#263238"></path>
                <path d="M34.606,79.451 L19.948,79.451 C19.545,79.451 19.216,79.123 19.216,78.719 C19.216,78.315 19.545,77.986 19.948,77.986 L34.606,77.986 C35.009,77.986 35.339,78.315 35.339,78.719 C35.339,79.123 35.01,79.451 34.606,79.451" id="Shape" fill="#263238"></path>
                <polyline id="Shape" fill="#F05A27" points="74.916 91.178 63.19 78.719 66.854 78.719 81.512 91.178"></polyline>
                <path d="M81.512,91.911 C81.345,91.911 81.177,91.854 81.037,91.736 L66.585,79.451 L64.886,79.451 L75.45,90.675 C75.728,90.968 75.713,91.434 75.418,91.712 C75.123,91.99 74.661,91.976 74.381,91.681 L62.655,79.222 C62.455,79.009 62.401,78.698 62.516,78.428 C62.632,78.161 62.897,77.986 63.189,77.986 L66.853,77.986 C67.026,77.986 67.195,78.048 67.328,78.161 L81.986,90.621 C82.294,90.883 82.331,91.344 82.069,91.654 C81.926,91.823 81.719,91.911 81.512,91.911" id="Shape" fill="#263238"></path>
                <path d="M66.854,79.451 L52.196,79.451 C51.791,79.451 51.463,79.123 51.463,78.719 C51.463,78.315 51.791,77.986 52.196,77.986 L66.854,77.986 C67.259,77.986 67.587,78.315 67.587,78.719 C67.587,79.123 67.259,79.451 66.854,79.451" id="Shape" fill="#263238"></path>
                <path d="M12.62,136.617 L11.154,136.617 C10.751,136.617 10.421,136.289 10.421,135.886 C10.421,135.482 10.751,135.153 11.154,135.153 L12.62,135.153 C13.024,135.153 13.352,135.482 13.352,135.886 C13.352,136.289 13.023,136.617 12.62,136.617" id="Shape" fill="#263238"></path>
                <path d="M28.011,136.617 L15.551,136.617 C15.146,136.617 14.818,136.289 14.818,135.886 C14.818,135.482 15.146,135.153 15.551,135.153 L28.01,135.153 C28.413,135.153 28.742,135.482 28.742,135.886 C28.743,136.289 28.414,136.617 28.011,136.617" id="Shape" fill="#263238"></path>
                <path d="M75.649,136.617 L74.183,136.617 C73.778,136.617 73.45,136.289 73.45,135.886 C73.45,135.482 73.778,135.153 74.183,135.153 L75.649,135.153 C76.054,135.153 76.382,135.482 76.382,135.886 C76.382,136.289 76.054,136.617 75.649,136.617" id="Shape" fill="#263238"></path>
                <path d="M71.251,136.617 L58.792,136.617 C58.387,136.617 58.059,136.289 58.059,135.886 C58.059,135.482 58.387,135.153 58.792,135.153 L71.251,135.153 C71.656,135.153 71.983,135.482 71.983,135.886 C71.984,136.289 71.657,136.617 71.251,136.617" id="Shape" fill="#263238"></path>
                <path d="M83.71,72.856 L77.847,72.856 C77.442,72.856 77.115,72.527 77.115,72.123 C77.115,71.719 77.443,71.39 77.847,71.39 L83.71,71.39 C84.115,71.39 84.443,71.719 84.443,72.123 C84.443,72.527 84.116,72.856 83.71,72.856" id="Shape" fill="#263238"></path>
                <path d="M75.649,61.862 L69.786,61.862 C69.381,61.862 69.054,61.534 69.054,61.13 C69.054,60.726 69.381,60.397 69.786,60.397 L75.649,60.397 C76.054,60.397 76.382,60.726 76.382,61.13 C76.382,61.534 76.054,61.862 75.649,61.862" id="Shape" fill="#263238"></path>
                <path d="M72.717,64.793 C72.312,64.793 71.984,64.465 71.984,64.061 L71.984,58.198 C71.984,57.793 72.312,57.465 72.717,57.465 C73.122,57.465 73.45,57.793 73.45,58.198 L73.45,64.061 C73.45,64.465 73.123,64.793 72.717,64.793" id="Shape" fill="#263238"></path>
                <path d="M80.779,75.787 C80.374,75.787 80.047,75.459 80.047,75.054 L80.047,69.191 C80.047,68.787 80.375,68.458 80.779,68.458 C81.184,68.458 81.512,68.787 81.512,69.191 L81.512,75.054 C81.512,75.459 81.184,75.787 80.779,75.787" id="Shape" fill="#263238"></path>
                <path d="M17.017,115.364 C16.614,115.364 16.284,115.034 16.284,114.631 L16.284,107.303 C16.284,106.898 16.614,106.57 17.017,106.57 C17.421,106.57 17.75,106.898 17.75,107.303 L17.75,114.631 C17.75,115.034 17.42,115.364 17.017,115.364" id="Shape" fill="#263238"></path>
                <path d="M162.465,81.357 L105.73,81.357 C105.294,81.357 104.943,81.003 104.943,80.569 L104.943,79.781 C104.943,77.174 107.063,75.053 109.671,75.053 L158.527,75.053 C161.134,75.053 163.255,77.174 163.255,79.781 L163.255,80.569 C163.254,81.004 162.901,81.357 162.465,81.357 M106.518,79.782 L161.678,79.782 C161.678,78.043 160.265,76.63 158.527,76.63 L109.67,76.63 C107.933,76.63 106.518,78.043 106.518,79.782" id="Shape" fill="#263238"></path>
                <polygon id="Shape" fill="#468ECB" points="134.098 59.293 108.883 30.926 116.762 16.742 151.434 16.742 159.314 30.926"></polygon>
                <path d="M134.098,60.082 C133.873,60.082 133.659,59.985 133.509,59.817 L108.292,31.449 C108.07,31.2 108.031,30.835 108.192,30.544 L116.073,16.36 C116.212,16.109 116.475,15.953 116.761,15.953 L151.433,15.953 C151.719,15.953 151.983,16.109 152.122,16.36 L160.002,30.544 C160.164,30.835 160.124,31.2 159.901,31.449 L134.686,59.817 C134.538,59.985 134.323,60.082 134.098,60.082 Z M109.843,30.819 L134.098,58.109 L158.354,30.819 L150.971,17.529 L117.226,17.529 L109.843,30.819 Z" id="Shape" fill="#263238"></path>
                <path d="M134.098,60.082 C133.787,60.082 133.504,59.898 133.378,59.614 L120.771,31.246 C120.677,31.038 120.681,30.8 120.776,30.593 L127.399,16.409 C127.529,16.129 127.807,15.953 128.113,15.953 L140.87,15.953 C141.191,15.953 141.478,16.147 141.599,16.441 L147.436,30.626 C147.519,30.824 147.515,31.048 147.428,31.245 L134.82,59.613 C134.692,59.898 134.409,60.082 134.098,60.082 Z M122.356,30.934 L134.097,57.354 L145.848,30.913 L140.341,17.529 L128.613,17.529 L122.356,30.934 Z" id="Shape" fill="#263238"></path>
                <path d="M159.314,31.714 L108.882,31.714 C108.445,31.714 108.094,31.36 108.094,30.926 C108.094,30.492 108.446,30.138 108.882,30.138 L159.314,30.138 C159.75,30.138 160.101,30.491 160.101,30.926 C160.101,31.361 159.75,31.714 159.314,31.714" id="Shape" fill="#263238"></path>
                <path d="M108.883,65.598 C108.446,65.598 108.095,65.244 108.095,64.81 L108.095,42.746 C108.095,42.312 108.447,41.958 108.883,41.958 C109.318,41.958 109.67,42.312 109.67,42.746 L109.67,64.81 C109.67,65.244 109.317,65.598 108.883,65.598" id="Shape" fill="#263238"></path>
                <path d="M108.883,71.902 C108.446,71.902 108.095,71.548 108.095,71.114 L108.095,67.962 C108.095,67.528 108.447,67.173 108.883,67.173 C109.318,67.173 109.67,67.527 109.67,67.962 L109.67,71.114 C109.67,71.547 109.317,71.902 108.883,71.902" id="Shape" fill="#263238"></path>
                <path d="M116.762,66.386 C116.326,66.386 115.974,66.032 115.974,65.598 L115.974,50.625 C115.974,50.191 116.327,49.837 116.762,49.837 C117.199,49.837 117.55,50.191 117.55,50.625 L117.55,65.597 C117.55,66.031 117.198,66.386 116.762,66.386" id="Shape" fill="#263238"></path>
                <path d="M116.762,71.902 C116.326,71.902 115.974,71.548 115.974,71.114 L115.974,68.75 C115.974,68.315 116.327,67.962 116.762,67.962 C117.199,67.962 117.55,68.316 117.55,68.75 L117.55,71.114 C117.55,71.547 117.198,71.902 116.762,71.902" id="Shape" fill="#263238"></path>
                <path d="M124.643,67.173 C124.207,67.173 123.854,66.819 123.854,66.385 L123.854,58.505 C123.854,58.07 124.208,57.717 124.643,57.717 C125.078,57.717 125.431,58.071 125.431,58.505 L125.431,66.385 C125.431,66.82 125.077,67.173 124.643,67.173" id="Shape" fill="#263238"></path>
                <path d="M124.643,71.902 C124.207,71.902 123.854,71.548 123.854,71.114 L123.854,69.538 C123.854,69.104 124.208,68.75 124.643,68.75 C125.078,68.75 125.431,69.104 125.431,69.538 L125.431,71.114 C125.431,71.547 125.077,71.902 124.643,71.902" id="Shape" fill="#263238"></path>
                <path d="M159.314,65.598 C158.877,65.598 158.526,65.244 158.526,64.81 L158.526,42.746 C158.526,42.312 158.878,41.958 159.314,41.958 C159.75,41.958 160.101,42.312 160.101,42.746 L160.101,64.81 C160.102,65.244 159.75,65.598 159.314,65.598" id="Shape" fill="#263238"></path>
                <path d="M159.314,71.902 C158.877,71.902 158.526,71.548 158.526,71.114 L158.526,67.962 C158.526,67.528 158.878,67.173 159.314,67.173 C159.75,67.173 160.101,67.527 160.101,67.962 L160.101,71.114 C160.102,71.547 159.75,71.902 159.314,71.902" id="Shape" fill="#263238"></path>
                <path d="M151.434,66.386 C150.999,66.386 150.646,66.032 150.646,65.598 L150.646,50.625 C150.646,50.191 151,49.837 151.434,49.837 C151.87,49.837 152.223,50.191 152.223,50.625 L152.223,65.597 C152.223,66.031 151.869,66.386 151.434,66.386" id="Shape" fill="#263238"></path>
                <path d="M151.434,71.902 C150.999,71.902 150.646,71.548 150.646,71.114 L150.646,68.75 C150.646,68.315 151,67.962 151.434,67.962 C151.87,67.962 152.223,68.316 152.223,68.75 L152.223,71.114 C152.223,71.547 151.869,71.902 151.434,71.902" id="Shape" fill="#263238"></path>
                <path d="M143.554,67.173 C143.118,67.173 142.766,66.819 142.766,66.385 L142.766,58.505 C142.766,58.07 143.119,57.717 143.554,57.717 C143.991,57.717 144.342,58.071 144.342,58.505 L144.342,66.385 C144.342,66.82 143.99,67.173 143.554,67.173" id="Shape" fill="#263238"></path>
                <path d="M143.554,71.902 C143.118,71.902 142.766,71.548 142.766,71.114 L142.766,69.538 C142.766,69.104 143.119,68.75 143.554,68.75 C143.991,68.75 144.342,69.104 144.342,69.538 L144.342,71.114 C144.342,71.547 143.99,71.902 143.554,71.902" id="Shape" fill="#263238"></path>
                <path d="M94.698,81.357 C94.262,81.357 93.91,81.003 93.91,80.569 L93.91,72.689 C93.91,72.255 94.263,71.901 94.698,71.901 C95.133,71.901 95.485,72.255 95.485,72.689 L95.485,80.569 C95.485,81.004 95.134,81.357 94.698,81.357" id="Shape" fill="#263238"></path>
                <path d="M173.497,81.357 C173.062,81.357 172.709,81.003 172.709,80.569 L172.709,72.689 C172.709,72.255 173.063,71.901 173.497,71.901 C173.934,71.901 174.286,72.255 174.286,72.689 L174.286,80.569 C174.286,81.004 173.934,81.357 173.497,81.357" id="Shape" fill="#263238"></path>
                <path d="M169.558,92.39 L98.639,92.39 C96.462,92.39 94.699,90.626 94.699,88.45 L94.699,80.57 L173.498,80.57 L173.498,88.45 C173.497,90.625 171.734,92.39 169.558,92.39" id="Shape" fill="#F05A27"></path>
                <path d="M169.558,93.178 L98.639,93.178 C96.032,93.178 93.91,91.057 93.91,88.45 L93.91,80.57 C93.91,80.136 94.263,79.782 94.698,79.782 L173.497,79.782 C173.934,79.782 174.286,80.136 174.286,80.57 L174.286,88.45 C174.286,91.057 172.165,93.178 169.558,93.178 Z M95.485,81.357 L95.485,88.449 C95.485,90.188 96.9,91.601 98.638,91.601 L169.557,91.601 C171.296,91.601 172.708,90.188 172.708,88.449 L172.708,81.357 L95.485,81.357 Z" id="Shape" fill="#263238"></path>
                <path d="M145.917,93.178 L122.278,93.178 C121.841,93.178 121.49,92.825 121.49,92.39 L121.49,86.086 C121.49,85.649 121.842,85.298 122.278,85.298 L145.917,85.298 C146.355,85.298 146.706,85.649 146.706,86.086 L146.706,92.39 C146.706,92.825 146.354,93.178 145.917,93.178 Z M123.065,91.602 L145.129,91.602 L145.129,86.874 L123.065,86.874 L123.065,91.602 Z" id="Shape" fill="#263238"></path>
                <path d="M130.158,93.178 C129.722,93.178 129.369,92.824 129.369,92.39 L129.369,86.086 C129.369,85.652 129.723,85.298 130.158,85.298 C130.593,85.298 130.946,85.652 130.946,86.086 L130.946,92.39 C130.946,92.823 130.593,93.178 130.158,93.178" id="Shape" fill="#263238"></path>
                <path d="M138.038,93.178 C137.601,93.178 137.25,92.824 137.25,92.39 L137.25,86.086 C137.25,85.652 137.602,85.298 138.038,85.298 C138.474,85.298 138.826,85.652 138.826,86.086 L138.826,92.39 C138.826,92.823 138.474,93.178 138.038,93.178" id="Shape" fill="#263238"></path>
                <path d="M106.912,14.378 C106.573,14.378 106.271,14.161 106.165,13.839 L105.293,11.226 C104.93,10.136 104.063,9.268 102.972,8.905 L100.359,8.033 C100.038,7.926 99.821,7.624 99.821,7.286 C99.821,6.948 100.038,6.647 100.359,6.538 L102.972,5.667 C104.063,5.303 104.93,4.436 105.293,3.346 L106.165,0.733 C106.38,0.09 107.444,0.09 107.66,0.733 L108.531,3.346 C108.892,4.435 109.76,5.303 110.852,5.667 L113.465,6.538 C113.785,6.646 114.003,6.947 114.003,7.286 C114.003,7.625 113.785,7.926 113.465,8.033 L110.852,8.905 C109.76,9.268 108.892,10.136 108.531,11.226 L107.66,13.839 C107.553,14.161 107.25,14.378 106.912,14.378 Z M103.1,7.286 L103.471,7.411 C105.029,7.93 106.267,9.17 106.789,10.728 L106.912,11.098 L107.035,10.728 C107.554,9.169 108.794,7.929 110.353,7.411 L110.723,7.286 L110.353,7.161 C108.793,6.642 107.553,5.402 107.035,3.843 L106.912,3.473 L106.789,3.843 C106.267,5.402 105.028,6.642 103.471,7.161 L103.1,7.286 Z" id="Shape" fill="#263238"></path>
                <path d="M173.926,107.5 L143.733,107.5 L143.733,104.235 C143.733,103.334 144.462,102.602 145.365,102.602 L172.295,102.602 C173.197,102.602 173.927,103.333 173.927,104.235 L173.927,107.5 L173.926,107.5 Z" id="Shape" fill="#F05A27"></path>
                <path d="M173.926,108.315 L143.733,108.315 C143.283,108.315 142.917,107.949 142.917,107.5 L142.917,104.235 C142.917,102.885 144.015,101.787 145.365,101.787 L172.295,101.787 C173.646,101.787 174.742,102.886 174.742,104.235 L174.742,107.5 C174.741,107.949 174.376,108.315 173.926,108.315 Z M144.548,106.684 L173.11,106.684 L173.11,104.236 C173.11,103.786 172.745,103.42 172.295,103.42 L145.365,103.42 C144.915,103.42 144.549,103.786 144.549,104.236 L144.549,106.684 L144.548,106.684 Z" id="Shape" fill="#263238"></path>
                <path d="M136.388,158.911 C118.204,158.911 103.742,142.997 103.136,142.317 C102.861,142.009 102.861,141.538 103.136,141.23 C103.742,140.551 118.204,124.636 136.388,124.636 C154.57,124.636 169.032,140.551 169.639,141.23 C169.915,141.538 169.915,142.009 169.639,142.317 C169.031,142.997 154.569,158.911 136.388,158.911 M104.866,141.774 C107.595,144.583 120.793,157.279 136.387,157.279 C151.979,157.279 165.178,144.583 167.907,141.774 C165.178,138.965 151.979,126.268 136.387,126.268 C120.78,126.269 107.592,138.965 104.866,141.774" id="Shape" fill="#263238"></path>
                <path d="M152.709,141.774 C152.709,150.789 145.398,158.095 136.388,158.095 C127.372,158.095 120.067,150.788 120.067,141.774 C120.067,132.76 127.373,125.453 136.388,125.453 C145.398,125.453 152.709,132.76 152.709,141.774" id="Shape" fill="#468ECB"></path>
                <path d="M136.388,158.911 C126.936,158.911 119.25,151.223 119.25,141.774 C119.25,132.324 126.936,124.636 136.388,124.636 C145.836,124.636 153.525,132.324 153.525,141.774 C153.524,151.224 145.836,158.911 136.388,158.911 M136.388,126.269 C127.838,126.269 120.882,133.225 120.882,141.775 C120.882,150.324 127.838,157.28 136.388,157.28 C144.937,157.28 151.893,150.324 151.893,141.775 C151.893,133.225 144.937,126.269 136.388,126.269" id="Shape" fill="#263238"></path>
                <path d="M136.388,153.198 C130.077,153.199 124.962,148.084 124.962,141.774 C124.962,135.463 130.077,130.348 136.388,130.348 C142.698,130.348 147.812,135.463 147.812,141.774 C147.812,148.084 142.697,153.198 136.388,153.198" id="Shape" fill="#FFFFFF"></path>
                <path d="M136.388,154.015 C129.638,154.015 124.146,148.526 124.146,141.775 C124.146,135.025 129.638,129.534 136.388,129.534 C143.139,129.534 148.628,135.025 148.628,141.775 C148.628,148.525 143.139,154.015 136.388,154.015 M136.388,131.166 C130.538,131.166 125.78,135.925 125.78,141.774 C125.78,147.623 130.539,152.382 136.388,152.382 C142.237,152.382 146.996,147.623 146.996,141.774 C146.996,135.925 142.237,131.166 136.388,131.166" id="Shape" fill="#263238"></path>
                <path d="M142.916,141.774 C142.916,138.169 139.992,135.245 136.388,135.245 C135.562,135.245 134.782,135.414 134.054,135.694 C134.486,136.248 134.756,136.936 134.756,137.693 C134.756,139.495 133.291,140.958 131.49,140.958 C130.942,140.958 130.432,140.81 129.98,140.572 C129.906,140.961 129.858,141.362 129.858,141.774 C129.858,145.379 132.782,148.302 136.387,148.302 C139.992,148.303 142.916,145.38 142.916,141.774" id="Shape" fill="#F05A27"></path>
                <path d="M136.388,149.119 C132.337,149.119 129.043,145.826 129.043,141.774 C129.043,141.346 129.085,140.906 129.18,140.42 C129.225,140.165 129.391,139.948 129.625,139.835 C129.858,139.724 130.133,139.727 130.361,139.848 C132.033,140.732 133.938,139.423 133.938,137.693 C133.938,137.156 133.756,136.638 133.41,136.197 C133.25,135.995 133.196,135.726 133.265,135.476 C133.332,135.226 133.517,135.025 133.76,134.93 C134.627,134.598 135.509,134.429 136.387,134.429 C140.437,134.429 143.732,137.723 143.732,141.774 C143.732,145.826 140.438,149.119 136.388,149.119 M130.675,141.688 C130.675,141.716 130.675,141.745 130.675,141.774 C130.675,144.922 133.238,147.487 136.388,147.487 C139.536,147.487 142.101,144.923 142.101,141.774 C142.101,138.254 138.827,135.433 135.274,136.179 C135.471,136.657 135.572,137.168 135.572,137.693 C135.572,139.944 133.742,141.774 131.491,141.774 C131.217,141.774 130.945,141.745 130.675,141.688" id="Shape" fill="#263238"></path>
                <path d="M120.882,177.681 L119.25,177.681 C118.799,177.681 118.435,177.315 118.435,176.865 C118.435,176.417 118.799,176.05 119.25,176.05 L120.882,176.05 C121.331,176.05 121.698,176.417 121.698,176.865 C121.698,177.314 121.331,177.681 120.882,177.681" id="Shape" fill="#263238"></path>
                <path d="M115.985,177.681 L98.848,177.681 C98.396,177.681 98.032,177.315 98.032,176.865 C98.032,176.417 98.396,176.05 98.848,176.05 L115.985,176.05 C116.435,176.05 116.801,176.417 116.801,176.865 C116.802,177.314 116.436,177.681 115.985,177.681" id="Shape" fill="#263238"></path>
                <path d="M129.043,181.762 L127.411,181.762 C126.96,181.762 126.594,181.395 126.594,180.946 C126.594,180.496 126.96,180.131 127.411,180.131 L129.043,180.131 C129.492,180.131 129.858,180.496 129.858,180.946 C129.858,181.395 129.492,181.762 129.043,181.762" id="Shape" fill="#263238"></path>
                <path d="M124.146,181.762 L98.849,181.762 C98.397,181.762 98.033,181.395 98.033,180.946 C98.033,180.496 98.397,180.131 98.849,180.131 L124.146,180.131 C124.596,180.131 124.962,180.496 124.962,180.946 C124.962,181.395 124.596,181.762 124.146,181.762" id="Shape" fill="#263238"></path>
                <path d="M172.294,131.981 L162.399,131.981 C161.947,131.981 161.583,131.615 161.583,131.166 C161.583,130.716 161.947,130.349 162.399,130.349 L172.294,130.349 C172.744,130.349 173.109,129.983 173.109,129.534 L173.109,104.236 C173.109,103.786 172.744,103.42 172.294,103.42 L145.364,103.42 C144.914,103.42 144.548,103.786 144.548,104.236 L144.548,122.161 C144.548,122.612 144.181,122.976 143.733,122.976 C143.283,122.976 142.917,122.612 142.917,122.161 L142.917,104.236 C142.917,102.886 144.015,101.788 145.365,101.788 L172.295,101.788 C173.646,101.788 174.742,102.887 174.742,104.236 L174.742,129.534 C174.741,130.883 173.645,131.981 172.294,131.981" id="Shape" fill="#263238"></path>
                <path d="M128.227,119.74 C128.019,119.74 127.809,119.661 127.651,119.501 L119.729,111.58 L98.849,111.58 C98.4,111.58 98.033,111.213 98.033,110.764 C98.033,110.314 98.4,109.948 98.849,109.948 L120.067,109.948 C120.283,109.948 120.49,110.034 120.643,110.187 L128.804,118.348 C129.122,118.666 129.122,119.183 128.804,119.501 C128.644,119.661 128.436,119.74 128.227,119.74" id="Shape" fill="#263238"></path>
                <path d="M173.926,173.601 L152.709,173.601 C152.491,173.601 152.284,173.514 152.132,173.362 L143.971,165.202 C143.652,164.884 143.652,164.367 143.971,164.047 C144.29,163.729 144.807,163.729 145.125,164.047 L153.046,171.97 L173.926,171.97 C174.376,171.97 174.741,172.336 174.741,172.786 C174.741,173.233 174.376,173.601 173.926,173.601" id="Shape" fill="#263238"></path>
                <path d="M111.905,107.5 L98.848,107.5 C98.399,107.5 98.032,107.134 98.032,106.684 C98.032,106.234 98.399,105.868 98.848,105.868 L111.905,105.868 C112.354,105.868 112.721,106.234 112.721,106.684 C112.721,107.134 112.354,107.5 111.905,107.5" id="Shape" fill="#263238"></path>
                <path d="M111.905,103.419 L98.848,103.419 C98.399,103.419 98.032,103.054 98.032,102.603 C98.032,102.153 98.399,101.788 98.848,101.788 L111.905,101.788 C112.354,101.788 112.721,102.153 112.721,102.603 C112.722,103.054 112.354,103.419 111.905,103.419" id="Shape" fill="#263238"></path>
                <path d="M173.926,181.762 L160.869,181.762 C160.419,181.762 160.054,181.395 160.054,180.946 C160.054,180.496 160.419,180.131 160.869,180.131 L173.926,180.131 C174.376,180.131 174.741,180.496 174.741,180.946 C174.741,181.395 174.376,181.762 173.926,181.762" id="Shape" fill="#263238"></path>
                <path d="M173.926,177.681 L160.869,177.681 C160.419,177.681 160.054,177.315 160.054,176.865 C160.054,176.417 160.419,176.05 160.869,176.05 L173.926,176.05 C174.376,176.05 174.741,176.417 174.741,176.865 C174.741,177.314 174.376,177.681 173.926,177.681" id="Shape" fill="#263238"></path>
                <path d="M102.929,171.29 C100.229,171.29 98.033,169.093 98.033,166.393 C98.033,163.694 100.229,161.497 102.929,161.497 C105.629,161.497 107.825,163.694 107.825,166.393 C107.825,169.093 105.629,171.29 102.929,171.29 M102.929,163.129 C101.127,163.129 99.664,164.592 99.664,166.393 C99.664,168.194 101.127,169.659 102.929,169.659 C104.73,169.659 106.193,168.194 106.193,166.393 C106.193,164.592 104.729,163.129 102.929,163.129" id="Shape" fill="#263238"></path>
                <path d="M169.846,117.292 L155.973,117.292 C155.523,117.292 155.157,116.927 155.157,116.477 L155.157,111.581 C155.157,111.128 155.523,110.765 155.973,110.765 L169.846,110.765 C170.299,110.765 170.662,111.128 170.662,111.581 L170.662,116.477 C170.662,116.927 170.299,117.292 169.846,117.292 Z M156.788,115.66 L169.03,115.66 L169.03,112.395 L156.788,112.395 L156.788,115.66 Z" id="Shape" fill="#263238"></path>
                <path d="M169.846,121.372 L155.973,121.372 C155.524,121.372 155.157,121.006 155.157,120.557 C155.157,120.108 155.524,119.741 155.973,119.741 L169.846,119.741 C170.295,119.741 170.662,120.108 170.662,120.557 C170.662,121.006 170.295,121.372 169.846,121.372" id="Shape" fill="#263238"></path>
            </g>
        </g>
    </g>
</svg>