<?xml version="1.0" encoding="UTF-8"?>
<svg width="188px" height="146px" viewBox="0 0 188 146" version="1.1" xmlns="http://www.w3.org/2000/svg" xmlns:xlink="http://www.w3.org/1999/xlink">
    <!-- Generator: Sketch 50.2 (55047) - http://www.bohemiancoding.com/sketch -->
    <title>website-design-icon</title>
    <desc>Created with Sketch.</desc>
    <defs></defs>
    <g id="Page-1" stroke="none" stroke-width="1" fill="none" fill-rule="evenodd">
        <g id="website-design-icon" fill-rule="nonzero">
            <path d="M153.612,109.768 L18.52,109.768 C15.154,109.768 12.428,107.041 12.428,103.676 L12.428,8.636 C12.428,5.27 15.155,2.543 18.52,2.543 L153.613,2.543 C156.977,2.543 159.705,5.271 159.705,8.636 L159.705,103.676 C159.704,107.041 156.977,109.768 153.612,109.768" id="Shape" fill="#4EA3DA"></path>
            <path d="M154.306,2.543 L17.826,2.543 C14.844,2.543 12.427,5.097 12.427,8.246 L12.427,15.091 C12.427,11.941 14.844,9.388 17.826,9.388 L154.306,9.388 C157.287,9.388 159.704,11.941 159.704,15.091 L159.704,8.246 C159.704,5.097 157.287,2.543 154.306,2.543" id="Shape" fill="#FFFFFF"></path>
            <rect id="Rectangle-path" fill="#FFFFFF" x="20.362" y="14.822" width="131.408" height="71.715"></rect>
            <path d="M154.275,89.044 L17.858,89.044 L17.858,12.317 L154.275,12.317 L154.275,89.044 Z M22.867,84.034 L149.264,84.034 L149.264,17.327 L22.867,17.327 L22.867,84.034 Z" id="Shape" fill="#122436"></path>
            <path d="M110.59,132.58 L61.541,132.58 L62.347,131.431 C67.049,124.714 69.133,117.238 68.387,109.768 L103.747,109.768 C103.001,117.238 105.084,124.714 109.786,131.431 L110.59,132.58 Z" id="Shape" fill="#4EA3DA"></path>
            <path d="M68.279,116.611 L103.852,116.611 C103.556,114.343 103.518,112.055 103.746,109.767 L68.386,109.767 C68.614,112.056 68.576,114.344 68.279,116.611" id="Shape" fill="#FFFFFF"></path>
            <path d="M116.521,142.847 L55.609,142.847 C52.774,142.847 50.477,140.549 50.477,137.715 C50.477,134.879 52.774,132.58 55.609,132.58 L116.522,132.58 C119.357,132.58 121.656,134.879 121.656,137.716 C121.655,140.549 119.356,142.847 116.521,142.847" id="Shape" fill="#4EA3DA"></path>
            <path d="M116.521,132.58 L55.609,132.58 C52.774,132.58 50.477,134.879 50.477,137.715 C50.477,138.535 50.669,139.308 51.012,139.995 C51.852,138.306 53.595,137.144 55.61,137.144 L116.523,137.144 C118.539,137.144 120.283,138.305 121.122,139.995 C121.465,139.307 121.657,138.535 121.657,137.715 C121.655,134.879 119.356,132.58 116.521,132.58" id="Shape" fill="#FFFFFF"></path>
            <path d="M153.612,0.038 L18.52,0.038 C13.779,0.038 9.922,3.895 9.922,8.636 L9.922,103.674 C9.922,108.416 13.779,112.274 18.52,112.274 L66.022,112.274 C66.124,118.38 64.167,124.463 60.294,129.996 L60.237,130.076 L55.609,130.076 C51.397,130.076 47.972,133.505 47.972,137.716 C47.972,141.927 51.397,145.353 55.609,145.353 L116.522,145.353 C120.733,145.353 124.161,141.927 124.161,137.717 C124.161,133.505 120.733,130.076 116.522,130.076 L111.894,130.076 L111.837,129.996 C107.965,124.464 106.008,118.381 106.109,112.274 L153.612,112.274 C158.352,112.274 162.209,108.417 162.209,103.674 L162.209,8.636 C162.209,3.895 158.353,0.038 153.612,0.038 Z M119.15,137.716 C119.15,139.162 117.97,140.342 116.521,140.342 L55.609,140.342 C54.161,140.342 52.982,139.162 52.982,137.715 C52.982,136.265 54.161,135.086 55.609,135.086 L61.541,135.086 L110.59,135.086 L116.522,135.086 C117.971,135.086 119.15,136.265 119.15,137.716 Z M105.944,130.075 L66.187,130.075 C69.472,124.45 71.123,118.387 71.036,112.273 L101.098,112.273 C101.008,118.388 102.659,124.45 105.944,130.075 Z M157.2,103.674 C157.2,105.653 155.59,107.263 153.612,107.263 L103.746,107.263 L68.386,107.263 L18.52,107.263 C16.541,107.263 14.932,105.654 14.932,103.674 L14.932,8.636 C14.932,6.657 16.542,5.048 18.52,5.048 L153.613,5.048 C155.591,5.048 157.201,6.657 157.201,8.636 L157.201,103.674 L157.2,103.674 Z" id="Shape" fill="#122436"></path>
            <rect id="Rectangle-path" fill="#F05A26" x="30.629" y="23.759" width="110.873" height="20.533"></rect>
            <rect id="Rectangle-path" fill="#F05A26" x="30.629" y="52.505" width="27.034" height="22.813"></rect>
            <rect id="Rectangle-path" fill="#4EA3DA" x="68.279" y="52.01" width="74.821" height="5.01"></rect>
            <rect id="Rectangle-path" fill="#4EA3DA" x="68.279" y="61.292" width="74.821" height="5.01"></rect>
            <rect id="Rectangle-path" fill="#4EA3DA" x="68.279" y="70.575" width="74.821" height="5.01"></rect>
            <path d="M86.065,102.467 C83.756,102.467 81.883,100.595 81.883,98.284 C81.883,95.975 83.756,94.101 86.065,94.101 C88.375,94.101 90.248,95.975 90.248,98.284 C90.248,100.595 88.375,102.467 86.065,102.467" id="Shape" fill="#FFFFFF"></path>
            <path d="M179.186,142.847 L135.103,142.847 C131.645,142.847 128.842,140.044 128.842,136.585 L128.842,70.174 C128.842,66.716 131.645,63.911 135.103,63.911 L179.186,63.911 C182.644,63.911 185.447,66.716 185.447,70.174 L185.447,136.585 C185.446,140.044 182.644,142.847 179.186,142.847" id="Shape" fill="#F05A26"></path>
            <path d="M179.744,63.911 L134.545,63.911 C131.396,63.911 128.842,66.466 128.842,69.615 L128.842,74.178 C128.842,71.029 131.396,68.475 134.545,68.475 L179.744,68.475 C182.894,68.475 185.446,71.029 185.446,74.178 L185.446,69.615 C185.446,66.466 182.895,63.911 179.744,63.911" id="Shape" fill="#FFFFFF"></path>
            <path d="M179.184,145.352 L135.103,145.352 C130.269,145.352 126.337,141.419 126.337,136.585 L126.337,70.174 C126.337,65.341 130.269,61.406 135.103,61.406 L179.184,61.406 C184.019,61.406 187.954,65.341 187.954,70.174 L187.954,136.585 C187.953,141.419 184.019,145.352 179.184,145.352 Z M135.103,66.417 C133.033,66.417 131.347,68.103 131.347,70.175 L131.347,136.586 C131.347,138.657 133.033,140.343 135.103,140.343 L179.184,140.343 C181.258,140.343 182.942,138.658 182.942,136.586 L182.942,70.174 C182.942,68.102 181.258,66.416 179.184,66.416 L135.103,66.416 L135.103,66.417 Z" id="Shape" fill="#122436"></path>
            <rect id="Rectangle-path" fill="#FFFFFF" x="136.484" y="71.554" width="40.836" height="56.579"></rect>
            <path d="M157.146,137.675 C155.4,137.675 153.989,136.263 153.989,134.521 C153.989,132.777 155.4,131.365 157.146,131.365 C158.887,131.365 160.3,132.777 160.3,134.521 C160.3,136.263 158.887,137.675 157.146,137.675" id="Shape" fill="#FFFFFF"></path>
            <rect id="Rectangle-path" fill="#F05A26" x="143.101" y="77.678" width="27.757" height="15.094"></rect>
            <rect id="Rectangle-path" fill="#4EA3DA" x="143.101" y="96.617" width="27.757" height="5.01"></rect>
            <rect id="Rectangle-path" fill="#4EA3DA" x="143.101" y="104.372" width="27.757" height="5.01"></rect>
            <rect id="Rectangle-path" fill="#4EA3DA" x="143.101" y="112.128" width="27.757" height="5.01"></rect>
            <path d="M31.575,142.847 L9.15,142.847 C5.692,142.847 2.888,140.044 2.888,136.585 L2.888,88.349 C2.888,84.889 5.691,82.085 9.15,82.085 L31.575,82.085 C35.033,82.085 37.836,84.89 37.836,88.349 L37.836,136.585 C37.836,140.044 35.033,142.847 31.575,142.847" id="Shape" fill="#F05A26"></path>
            <path d="M32.133,82.085 L8.591,82.085 C5.441,82.085 2.888,84.639 2.888,87.789 L2.888,92.353 C2.888,89.202 5.441,86.648 8.591,86.648 L32.133,86.648 C35.283,86.648 37.836,89.202 37.836,92.353 L37.836,87.789 C37.836,84.639 35.283,82.085 32.133,82.085" id="Shape" fill="#FFFFFF"></path>
            <path d="M31.575,145.352 L9.15,145.352 C4.316,145.352 0.383,141.419 0.383,136.585 L0.383,88.349 C0.383,83.513 4.315,79.581 9.15,79.581 L31.575,79.581 C36.409,79.581 40.342,83.513 40.342,88.349 L40.342,136.585 C40.341,141.419 36.409,145.352 31.575,145.352 Z M9.15,84.59 C7.078,84.59 5.393,86.276 5.393,88.349 L5.393,136.585 C5.393,138.656 7.079,140.342 9.15,140.342 L31.575,140.342 C33.646,140.342 35.331,138.656 35.331,136.585 L35.331,88.349 C35.331,86.276 33.646,84.59 31.575,84.59 L9.15,84.59 Z" id="Shape" fill="#122436"></path>
            <rect id="Rectangle-path" fill="#FFFFFF" x="8.581" y="89.159" width="23.265" height="41.171"></rect>
            <rect id="Rectangle-path" fill="#F05A26" x="11.691" y="92.68" width="17.137" height="11.621"></rect>
            <rect id="Rectangle-path" fill="#4EA3DA" x="11.691" y="106.684" width="17.137" height="5.01"></rect>
            <rect id="Rectangle-path" fill="#4EA3DA" x="11.691" y="113.567" width="17.137" height="5.01"></rect>
            <rect id="Rectangle-path" fill="#4EA3DA" x="11.691" y="120.449" width="17.137" height="5.01"></rect>
            <path d="M22.616,135.375 C22.616,136.703 21.54,137.778 20.213,137.778 C18.886,137.778 17.81,136.703 17.81,135.375 C17.81,134.049 18.886,132.973 20.213,132.973 C21.54,132.973 22.616,134.049 22.616,135.375" id="Shape" fill="#FFFFFF"></path>
        </g>
    </g>
</svg>